<svg width="76" height="33" viewBox="0 0 76 33" fill="none" xmlns="http://www.w3.org/2000/svg">
<path d="M74.6125 2.76106L72.1403 0.931018C71.3622 0.359605 70.3274 0.0447738 69.221 0.0447738C68.1146 0.0447738 67.0789 0.359605 66.3017 0.931018L40.5478 19.866C39.199 20.8576 37.0116 20.8576 35.6628 19.866L9.87777 0.908133C9.10149 0.336721 8.06583 0.022583 6.95942 0.022583C5.85301 0.022583 4.81734 0.336721 4.04012 0.908133L1.56792 2.72639C-0.0421714 3.90874 -0.0421714 5.83518 1.56792 7.01822L35.1771 31.8164C35.9533 32.3871 36.989 32.79 38.1039 32.79H38.1171C39.2235 32.79 40.2582 32.3871 41.0345 31.8164L74.6125 7.08549C75.3907 6.51477 75.817 5.73046 75.8189 4.91773C75.8189 4.1043 75.3907 3.33178 74.6125 2.76106Z" fill="#000000"/>
</svg>
