<?xml version="1.0" encoding="UTF-8"?>
<svg version="1.1" xmlns="http://www.w3.org/2000/svg" width="3600" height="6000">
<path d="M0 0 C1188 0 2376 0 3600 0 C3600 1980 3600 3960 3600 6000 C2412 6000 1224 6000 0 6000 C0 4020 0 2040 0 0 Z " fill="#FAF8EE" transform="translate(0,0)"/>
<path d="M0 0 C0 1092.63 0 2185.26 0 3311 C-1188 3311 -2376 3311 -3600 3311 C-3600 2754.95 -3600 2198.9 -3600 1626 C-3596.7 1625.67 -3593.4 1625.34 -3590 1625 C-3589.67 1624.67 -3589.34 1624.34 -3589 1624 C-3586.68182911 1623.67902249 -3584.36220643 1623.48779044 -3582.03125 1623.28125 C-3580.00819407 1623.20934163 -3580.00819407 1623.20934163 -3579 1622 C-3576.68182911 1621.67902249 -3574.36220643 1621.48779044 -3572.03125 1621.28125 C-3570.00819407 1621.20934163 -3570.00819407 1621.20934163 -3569 1620 C-3566.68182911 1619.67902249 -3564.36220643 1619.48779044 -3562.03125 1619.28125 C-3560.00819407 1619.20934163 -3560.00819407 1619.20934163 -3559 1618 C-3556.68182911 1617.67902249 -3554.36220643 1617.48779044 -3552.03125 1617.28125 C-3550.00819407 1617.20934163 -3550.00819407 1617.20934163 -3549 1616 C-3546.68182911 1615.67902249 -3544.36220643 1615.48779044 -3542.03125 1615.28125 C-3540.00819407 1615.20934163 -3540.00819407 1615.20934163 -3539 1614 C-3536.68182911 1613.67902249 -3534.36220643 1613.48779044 -3532.03125 1613.28125 C-3530.00819407 1613.20934163 -3530.00819407 1613.20934163 -3529 1612 C-3526.68182911 1611.67902249 -3524.36220643 1611.48779044 -3522.03125 1611.28125 C-3520.00819407 1611.20934163 -3520.00819407 1611.20934163 -3519 1610 C-3516.68182911 1609.67902249 -3514.36220643 1609.48779044 -3512.03125 1609.28125 C-3510.00819407 1609.20934163 -3510.00819407 1609.20934163 -3509 1608 C-3506.68182911 1607.67902249 -3504.36220643 1607.48779044 -3502.03125 1607.28125 C-3500.00819407 1607.20934163 -3500.00819407 1607.20934163 -3499 1606 C-3496.68182911 1605.67902249 -3494.36220643 1605.48779044 -3492.03125 1605.28125 C-3490.00819407 1605.20934163 -3490.00819407 1605.20934163 -3489 1604 C-3486.68182911 1603.67902249 -3484.36220643 1603.48779044 -3482.03125 1603.28125 C-3480.00819407 1603.20934163 -3480.00819407 1603.20934163 -3479 1602 C-3476.68182911 1601.67902249 -3474.36220643 1601.48779044 -3472.03125 1601.28125 C-3470.00819407 1601.20934163 -3470.00819407 1601.20934163 -3469 1600 C-3466.66666667 1599.66666667 -3464.33333333 1599.33333333 -3462 1599 C-3461.67 1598.67 -3461.34 1598.34 -3461 1598 C-3458.68182911 1597.67902249 -3456.36220643 1597.48779044 -3454.03125 1597.28125 C-3452.00819407 1597.20934163 -3452.00819407 1597.20934163 -3451 1596 C-3448.66666667 1595.66666667 -3446.33333333 1595.33333333 -3444 1595 C-3443.67 1594.67 -3443.34 1594.34 -3443 1594 C-3440.68182911 1593.67902249 -3438.36220643 1593.48779044 -3436.03125 1593.28125 C-3434.00819407 1593.20934163 -3434.00819407 1593.20934163 -3433 1592 C-3430.68182911 1591.67902249 -3428.36220643 1591.48779044 -3426.03125 1591.28125 C-3424.00819407 1591.20934163 -3424.00819407 1591.20934163 -3423 1590 C-3420.68182911 1589.67902249 -3418.36220643 1589.48779044 -3416.03125 1589.28125 C-3414.00819407 1589.20934163 -3414.00819407 1589.20934163 -3413 1588 C-3410.66666667 1587.66666667 -3408.33333333 1587.33333333 -3406 1587 C-3405.67 1586.67 -3405.34 1586.34 -3405 1586 C-3402.68182911 1585.67902249 -3400.36220643 1585.48779044 -3398.03125 1585.28125 C-3396.00819407 1585.20934163 -3396.00819407 1585.20934163 -3395 1584 C-3392.68182911 1583.67902249 -3390.36220643 1583.48779044 -3388.03125 1583.28125 C-3386.00819407 1583.20934163 -3386.00819407 1583.20934163 -3385 1582 C-3382.66666667 1581.66666667 -3380.33333333 1581.33333333 -3378 1581 C-3377.67 1580.67 -3377.34 1580.34 -3377 1580 C-3374.68182911 1579.67902249 -3372.36220643 1579.48779044 -3370.03125 1579.28125 C-3368.00819407 1579.20934163 -3368.00819407 1579.20934163 -3367 1578 C-3364.68182911 1577.67902249 -3362.36220643 1577.48779044 -3360.03125 1577.28125 C-3358.00819407 1577.20934163 -3358.00819407 1577.20934163 -3357 1576 C-3354.66666667 1575.66666667 -3352.33333333 1575.33333333 -3350 1575 C-3349.67 1574.67 -3349.34 1574.34 -3349 1574 C-3346.68182911 1573.67902249 -3344.36220643 1573.48779044 -3342.03125 1573.28125 C-3340.00819407 1573.20934163 -3340.00819407 1573.20934163 -3339 1572 C-3336.66666667 1571.66666667 -3334.33333333 1571.33333333 -3332 1571 C-3331.67 1570.67 -3331.34 1570.34 -3331 1570 C-3328.68182911 1569.67902249 -3326.36220643 1569.48779044 -3324.03125 1569.28125 C-3322.00819407 1569.20934163 -3322.00819407 1569.20934163 -3321 1568 C-3318.66666667 1567.66666667 -3316.33333333 1567.33333333 -3314 1567 C-3313.67 1566.67 -3313.34 1566.34 -3313 1566 C-3310.68182911 1565.67902249 -3308.36220643 1565.48779044 -3306.03125 1565.28125 C-3304.00819407 1565.20934163 -3304.00819407 1565.20934163 -3303 1564 C-3300.66666667 1563.66666667 -3298.33333333 1563.33333333 -3296 1563 C-3295.67 1562.67 -3295.34 1562.34 -3295 1562 C-3292.68182911 1561.67902249 -3290.36220643 1561.48779044 -3288.03125 1561.28125 C-3286.00819407 1561.20934163 -3286.00819407 1561.20934163 -3285 1560 C-3282.66666667 1559.66666667 -3280.33333333 1559.33333333 -3278 1559 C-3277.67 1558.67 -3277.34 1558.34 -3277 1558 C-3274.66666667 1557.66666667 -3272.33333333 1557.33333333 -3270 1557 C-3269.67 1556.67 -3269.34 1556.34 -3269 1556 C-3266.68182911 1555.67902249 -3264.36220643 1555.48779044 -3262.03125 1555.28125 C-3260.00819407 1555.20934163 -3260.00819407 1555.20934163 -3259 1554 C-3256.66666667 1553.66666667 -3254.33333333 1553.33333333 -3252 1553 C-3251.67 1552.67 -3251.34 1552.34 -3251 1552 C-3248.66666667 1551.66666667 -3246.33333333 1551.33333333 -3244 1551 C-3243.67 1550.67 -3243.34 1550.34 -3243 1550 C-3240.66666667 1549.66666667 -3238.33333333 1549.33333333 -3236 1549 C-3235.67 1548.67 -3235.34 1548.34 -3235 1548 C-3233.62850746 1547.84107168 -3232.25218509 1547.7230369 -3230.875 1547.625 C-3226.45379598 1547.19127429 -3223.06747514 1545.80776673 -3219 1544 C-3216.67305036 1543.62468554 -3214.34023315 1543.28082798 -3212 1543 C-3211.67 1542.67 -3211.34 1542.34 -3211 1542 C-3208.68182911 1541.67902249 -3206.36220643 1541.48779044 -3204.03125 1541.28125 C-3202.00819407 1541.20934163 -3202.00819407 1541.20934163 -3201 1540 C-3198.66666667 1539.66666667 -3196.33333333 1539.33333333 -3194 1539 C-3193.67 1538.67 -3193.34 1538.34 -3193 1538 C-3190.66666667 1537.66666667 -3188.33333333 1537.33333333 -3186 1537 C-3185.67 1536.67 -3185.34 1536.34 -3185 1536 C-3182.66666667 1535.66666667 -3180.33333333 1535.33333333 -3178 1535 C-3177.67 1534.67 -3177.34 1534.34 -3177 1534 C-3174.66666667 1533.66666667 -3172.33333333 1533.33333333 -3170 1533 C-3169.67 1532.67 -3169.34 1532.34 -3169 1532 C-3166.66666667 1531.66666667 -3164.33333333 1531.33333333 -3162 1531 C-3161.67 1530.67 -3161.34 1530.34 -3161 1530 C-3158.66666667 1529.66666667 -3156.33333333 1529.33333333 -3154 1529 C-3153.67 1528.67 -3153.34 1528.34 -3153 1528 C-3150.66666667 1527.66666667 -3148.33333333 1527.33333333 -3146 1527 C-3145.67 1526.67 -3145.34 1526.34 -3145 1526 C-3142.66666667 1525.66666667 -3140.33333333 1525.33333333 -3138 1525 C-3137.67 1524.67 -3137.34 1524.34 -3137 1524 C-3135.453125 1523.814375 -3135.453125 1523.814375 -3133.875 1523.625 C-3129.97473587 1523.15663759 -3129.97473587 1523.15663759 -3126.5 1521.5 C-3122.92846771 1519.9693433 -3119.83569781 1519.46028374 -3116 1519 C-3115.67 1518.67 -3115.34 1518.34 -3115 1518 C-3112.66666667 1517.66666667 -3110.33333333 1517.33333333 -3108 1517 C-3107.67 1516.67 -3107.34 1516.34 -3107 1516 C-3104.66666667 1515.66666667 -3102.33333333 1515.33333333 -3100 1515 C-3099.67 1514.67 -3099.34 1514.34 -3099 1514 C-3096.66666667 1513.66666667 -3094.33333333 1513.33333333 -3092 1513 C-3091.67 1512.67 -3091.34 1512.34 -3091 1512 C-3089.453125 1511.814375 -3089.453125 1511.814375 -3087.875 1511.625 C-3083.97473587 1511.15663759 -3083.97473587 1511.15663759 -3080.5 1509.5 C-3076.92846771 1507.9693433 -3073.83569781 1507.46028374 -3070 1507 C-3069.67 1506.67 -3069.34 1506.34 -3069 1506 C-3067.453125 1505.814375 -3067.453125 1505.814375 -3065.875 1505.625 C-3061.97473587 1505.15663759 -3061.97473587 1505.15663759 -3058.5 1503.5 C-3054.92846771 1501.9693433 -3051.83569781 1501.46028374 -3048 1501 C-3047.67 1500.67 -3047.34 1500.34 -3047 1500 C-3045.453125 1499.814375 -3045.453125 1499.814375 -3043.875 1499.625 C-3039.97473587 1499.15663759 -3039.97473587 1499.15663759 -3036.5 1497.5 C-3032.92846771 1495.9693433 -3029.83569781 1495.46028374 -3026 1495 C-3025.67 1494.67 -3025.34 1494.34 -3025 1494 C-3023.453125 1493.814375 -3023.453125 1493.814375 -3021.875 1493.625 C-3017.97473587 1493.15663759 -3017.97473587 1493.15663759 -3014.5 1491.5 C-3010.89979446 1489.95705477 -3007.85539214 1489.55077031 -3004 1489 C-3002.845 1488.505 -3001.69 1488.01 -3000.5 1487.5 C-2996.89979446 1485.95705477 -2993.85539214 1485.55077031 -2990 1485 C-2988.845 1484.505 -2987.69 1484.01 -2986.5 1483.5 C-2982.92846771 1481.9693433 -2979.83569781 1481.46028374 -2976 1481 C-2975.67 1480.67 -2975.34 1480.34 -2975 1480 C-2973.453125 1479.814375 -2973.453125 1479.814375 -2971.875 1479.625 C-2967.97473587 1479.15663759 -2967.97473587 1479.15663759 -2964.5 1477.5 C-2960.89979446 1475.95705477 -2957.85539214 1475.55077031 -2954 1475 C-2951.64583651 1474.05007438 -2949.31104818 1473.05047644 -2947 1472 C-2943.77541688 1470.79078133 -2940.98597908 1469.99821552 -2937.5625 1469.5625 C-2933.92562181 1469.13780586 -2933.92562181 1469.13780586 -2930.5 1467.5 C-2926.89979446 1465.95705477 -2923.85539214 1465.55077031 -2920 1465 C-2918.33749207 1464.29663126 -2916.67545473 1463.59028029 -2915.0390625 1462.828125 C-2911.55107081 1461.411546 -2907.90172499 1460.57182677 -2904.2578125 1459.6484375 C-2902.05029761 1459.2117791 -2902.05029761 1459.2117791 -2901 1458 C-2899.453125 1457.814375 -2899.453125 1457.814375 -2897.875 1457.625 C-2893.81593874 1456.9703127 -2890.72988557 1455.69540253 -2887 1454 C-2883.77541688 1452.79078133 -2880.98597908 1451.99821552 -2877.5625 1451.5625 C-2874.35477254 1451.05601672 -2871.96054781 1450.18881679 -2869.0390625 1448.828125 C-2865.55107081 1447.411546 -2861.90172499 1446.57182677 -2858.2578125 1445.6484375 C-2856.05029761 1445.2117791 -2856.05029761 1445.2117791 -2855 1444 C-2853.453125 1443.814375 -2853.453125 1443.814375 -2851.875 1443.625 C-2848.51810434 1443.08356522 -2846.06810922 1442.23655518 -2843.015625 1440.8203125 C-2840.55364491 1439.81834386 -2838.07231416 1439.16767717 -2835.5 1438.5 C-2831.08472735 1437.34635147 -2827.15319986 1435.8730117 -2823 1434 C-2819.77541688 1432.79078133 -2816.98597908 1431.99821552 -2813.5625 1431.5625 C-2810.34734489 1431.05484393 -2807.94549928 1430.17966858 -2805.015625 1428.8203125 C-2802.55364491 1427.81834386 -2800.07231416 1427.16767717 -2797.5 1426.5 C-2794.32366511 1425.6713909 -2791.53002078 1424.79858033 -2788.5 1423.5 C-2784.49179726 1421.78219882 -2780.47788791 1420.71782991 -2776.2578125 1419.6484375 C-2774.05029761 1419.2117791 -2774.05029761 1419.2117791 -2773 1418 C-2771.39125 1417.814375 -2771.39125 1417.814375 -2769.75 1417.625 C-2766.10715732 1417.25815172 -2766.10715732 1417.25815172 -2763.75 1415.625 C-2760.11795245 1413.47879008 -2756.402602 1412.66160959 -2752.328125 1411.6484375 C-2750.05775603 1411.22157422 -2750.05775603 1411.22157422 -2749 1410 C-2748.030625 1409.896875 -2747.06125 1409.79375 -2746.0625 1409.6875 C-2739.85694536 1408.88472804 -2734.20918328 1406.00417422 -2728.5625 1403.4375 C-2724.63872124 1401.85422085 -2720.71308595 1400.8164572 -2716.625 1399.75 C-2713.80798828 1399.00488484 -2713.80798828 1399.00488484 -2710.5 1397.5 C-2706.60253905 1395.82965959 -2702.71964944 1394.81816942 -2698.625 1393.75 C-2695.80798828 1393.00488484 -2695.80798828 1393.00488484 -2692.5 1391.5 C-2689.46997922 1390.20141967 -2686.67633489 1389.3286091 -2683.5 1388.5 C-2679.11285935 1387.35268544 -2675.16845234 1385.7967467 -2671 1384 C-2667.64151594 1382.94587727 -2664.27175372 1381.94379846 -2660.890625 1380.96484375 C-2657.85258747 1380.09147176 -2657.85258747 1380.09147176 -2655 1378 C-2653.26409645 1377.47204207 -2651.51139239 1376.99792801 -2649.75 1376.5625 C-2645.27993507 1375.39512084 -2641.22779438 1373.87901972 -2637 1372 C-2635.50489271 1371.48555448 -2634.00449672 1370.98630197 -2632.5 1370.5 C-2629.26160938 1369.45132653 -2626.20221996 1368.21325894 -2623.09375 1366.8203125 C-2619.11811287 1365.26269348 -2614.98928785 1364.15154962 -2610.890625 1362.96484375 C-2607.85258747 1362.09147176 -2607.85258747 1362.09147176 -2605 1360 C-2603.26409645 1359.47204207 -2601.51139239 1358.99792801 -2599.75 1358.5625 C-2595.27993507 1357.39512084 -2591.22779438 1355.87901972 -2587 1354 C-2585.50489271 1353.48555448 -2584.00449672 1352.98630197 -2582.5 1352.5 C-2579.74539779 1351.6066155 -2577.17117197 1350.64478799 -2574.5 1349.5 C-2571.88646943 1348.37991547 -2569.3811502 1347.4352238 -2566.6875 1346.5625 C-2560.46223662 1344.53690323 -2554.43055125 1342.06603125 -2548.4375 1339.4375 C-2545.05837903 1338.02441305 -2541.6679565 1336.8787967 -2538.1875 1335.75 C-2536.25891037 1335.08876927 -2534.37394806 1334.3031206 -2532.5 1333.5 C-2529.10036126 1332.04301197 -2525.70087956 1330.88947445 -2522.1875 1329.75 C-2520.25891037 1329.08876927 -2518.37394806 1328.3031206 -2516.5 1327.5 C-2513.78472716 1326.33631164 -2511.18029485 1325.38880629 -2508.375 1324.5 C-2505.81809355 1323.67629859 -2503.91027702 1322.94333285 -2501.625 1321.5 C-2498.20155698 1319.54374685 -2494.72073911 1318.79660752 -2490.91796875 1317.81640625 C-2485.59055628 1316.32587184 -2480.31918522 1314.46093411 -2475.625 1311.50390625 C-2472.60879784 1309.77587376 -2469.7154306 1308.88587512 -2466.375 1307.9375 C-2462.73350293 1306.90004832 -2460.1640477 1306.10936513 -2457 1304 C-2455.66016286 1303.50132851 -2454.30358659 1303.04647862 -2452.9375 1302.625 C-2446.6208685 1300.59135279 -2440.51251398 1298.10197982 -2434.4375 1295.4375 C-2431.06857239 1294.02867573 -2427.70185533 1292.90236768 -2424.2109375 1291.84375 C-2421.90005776 1291.04178495 -2421.90005776 1291.04178495 -2419.625 1289.52734375 C-2416.67465363 1287.81069876 -2413.91061643 1286.97170265 -2410.625 1286.0625 C-2406.92286465 1284.97265791 -2403.54361189 1283.96314862 -2400.25 1281.9375 C-2396.97492729 1279.98505281 -2393.99252381 1278.90920238 -2390.3828125 1277.77734375 C-2386.17077055 1276.40325138 -2382.1002976 1274.6728208 -2378 1273 C-2376.27119755 1272.31158465 -2374.54203496 1271.62407297 -2372.8125 1270.9375 C-2369.99571094 1269.8142944 -2367.21566807 1268.65599477 -2364.4375 1267.4375 C-2361.74987648 1266.31358471 -2359.14308129 1265.38013128 -2356.375 1264.5 C-2353.80833945 1263.67037235 -2351.82787952 1262.89672771 -2349.5 1261.5 C-2346.57648095 1259.74588857 -2343.69022103 1258.84151066 -2340.453125 1257.8125 C-2337.09207566 1256.69928621 -2333.83180951 1255.37645497 -2330.5546875 1254.0390625 C-2328.81574944 1253.331788 -2327.07060645 1252.63962291 -2325.3203125 1251.9609375 C-2324.45148438 1251.62320313 -2323.58265625 1251.28546875 -2322.6875 1250.9375 C-2321.51767578 1250.48697266 -2321.51767578 1250.48697266 -2320.32421875 1250.02734375 C-2317.92819245 1249.03444807 -2317.92819245 1249.03444807 -2315.60546875 1247.5 C-2312.66394315 1245.80652799 -2309.89247254 1244.96668183 -2306.625 1244.0625 C-2302.92286465 1242.97265791 -2299.54361189 1241.96314862 -2296.25 1239.9375 C-2292.97492729 1237.98505281 -2289.99252381 1236.90920238 -2286.3828125 1235.77734375 C-2283.04100122 1234.6871463 -2279.80807072 1233.36676718 -2276.5546875 1232.0390625 C-2274.81574944 1231.331788 -2273.07060645 1230.63962291 -2271.3203125 1229.9609375 C-2266.23683797 1227.99357443 -2266.23683797 1227.99357443 -2261.4375 1225.4375 C-2258.54605169 1223.7322869 -2255.66039916 1222.83286517 -2252.47265625 1221.81640625 C-2247.29831294 1220.10797378 -2242.09975485 1218.28033833 -2237.4375 1215.4375 C-2234.54605169 1213.7322869 -2231.66039916 1212.83286517 -2228.47265625 1211.81640625 C-2223.29831294 1210.10797378 -2218.09975485 1208.28033833 -2213.4375 1205.4375 C-2210.54605169 1203.7322869 -2207.66039916 1202.83286517 -2204.47265625 1201.81640625 C-2199.29831294 1200.10797378 -2194.09975485 1198.28033833 -2189.4375 1195.4375 C-2186.54605169 1193.7322869 -2183.66039916 1192.83286517 -2180.47265625 1191.81640625 C-2175.29831294 1190.10797378 -2170.09975485 1188.28033833 -2165.4375 1185.4375 C-2162.45237909 1183.67704408 -2159.41818943 1182.78995456 -2156.125 1181.75 C-2153.86384476 1181.03151191 -2153.86384476 1181.03151191 -2151.5 1179.5 C-2148.4896876 1177.69381256 -2145.45937432 1176.80296031 -2142.125 1175.75 C-2139.86384476 1175.03151191 -2139.86384476 1175.03151191 -2137.5 1173.5 C-2134.4896876 1171.69381256 -2131.45937432 1170.80296031 -2128.125 1169.75 C-2125.86384476 1169.03151191 -2125.86384476 1169.03151191 -2123.5 1167.5 C-2120.4896876 1165.69381256 -2117.45937432 1164.80296031 -2114.125 1163.75 C-2111.86384476 1163.03151191 -2111.86384476 1163.03151191 -2109.5 1161.5 C-2106.4896876 1159.69381256 -2103.45937432 1158.80296031 -2100.125 1157.75 C-2097.86384476 1157.03151191 -2097.86384476 1157.03151191 -2095.5 1155.5 C-2093.18512368 1154.11107421 -2091.30791823 1153.41001629 -2088.75 1152.625 C-2085.3992779 1151.5709649 -2082.53270784 1150.27084688 -2079.5 1148.5 C-2075.76058348 1146.31649455 -2072.11221992 1144.94650887 -2067.984375 1143.6796875 C-2065.84007781 1143.02240902 -2065.84007781 1143.02240902 -2063.5 1141.5 C-2060.4896876 1139.69381256 -2057.45937432 1138.80296031 -2054.125 1137.75 C-2051.86384476 1137.03151191 -2051.86384476 1137.03151191 -2049.5 1135.5 C-2047.18512368 1134.11107421 -2045.30791823 1133.41001629 -2042.75 1132.625 C-2039.3992779 1131.5709649 -2036.53270784 1130.27084688 -2033.5 1128.5 C-2029.76058348 1126.31649455 -2026.11221992 1124.94650887 -2021.984375 1123.6796875 C-2019.84007781 1123.02240902 -2019.84007781 1123.02240902 -2017.5 1121.5 C-2015.23122594 1120.13873557 -2013.50347828 1119.49378703 -2011 1118.75 C-2006.8651924 1117.45442695 -2003.28490616 1115.60469081 -1999.5 1113.5 C-1995.00539817 1111.00066534 -1990.7620813 1109.07061836 -1985.84375 1107.609375 C-1983.81615264 1107.014026 -1983.81615264 1107.014026 -1981.5 1105.5 C-1979.18512368 1104.11107421 -1977.30791823 1103.41001629 -1974.75 1102.625 C-1971.3992779 1101.5709649 -1968.53270784 1100.27084688 -1965.5 1098.5 C-1962.61130348 1096.8165872 -1959.95426714 1095.57224685 -1956.75 1094.625 C-1952.69068546 1093.39017355 -1949.20678662 1091.56028373 -1945.5 1089.5 C-1941.07809555 1087.04224381 -1936.94408017 1085.17142516 -1932.109375 1083.7421875 C-1929.71982991 1082.90142163 -1927.68741965 1081.77473766 -1925.5 1080.5 C-1922.61130348 1078.8165872 -1919.95426714 1077.57224685 -1916.75 1076.625 C-1911.57130411 1075.04966244 -1907.08087414 1072.41020026 -1902.40625 1069.71875 C-1899.74191915 1068.37436288 -1897.43918932 1067.44390701 -1894.625 1066.5625 C-1889.91768209 1065.06742093 -1885.79402105 1062.9138931 -1881.5 1060.5 C-1876.42323667 1057.64608666 -1871.54969804 1055.40846884 -1865.98632812 1053.66601562 C-1863.62965412 1052.87582306 -1861.61073814 1051.80664742 -1859.5 1050.5 C-1856.65116336 1048.73643446 -1853.91459707 1047.61502492 -1850.734375 1046.6171875 C-1846.0778315 1045.11797962 -1842.00337278 1043.01377098 -1837.75 1040.625 C-1832.75425582 1037.89329386 -1827.8725892 1035.4303524 -1822.5 1033.5 C-1817.21228679 1031.59642325 -1812.41825662 1029.18560904 -1807.5 1026.5 C-1801.56427882 1023.26119662 -1795.69206469 1020.61763701 -1789.32421875 1018.30859375 C-1780.93230163 1015.00507761 -1772.86568849 1010.69510103 -1765.0625 1006.1875 C-1762.38542003 1004.66346945 -1759.88613119 1003.570985 -1756.9375 1002.6875 C-1747.86748956 999.89795373 -1739.24906903 994.92103464 -1731.0625 990.1875 C-1728.38542003 988.66346945 -1725.88613119 987.570985 -1722.9375 986.6875 C-1716.39747567 984.65783728 -1710.4227636 981.31272054 -1704.35058594 978.19726562 C-1701.80676482 976.9015761 -1699.25257985 975.62831156 -1696.6953125 974.359375 C-1695.35400269 973.6933728 -1695.35400269 973.6933728 -1693.9855957 973.01391602 C-1692.23717375 972.14633208 -1690.48832981 971.27959792 -1688.73901367 970.41381836 C-1685.47570078 968.7882069 -1682.27799927 967.16802154 -1679.15625 965.28125 C-1677 964 -1677 964 -1673.1875 962.8125 C-1666.47097169 960.67744464 -1660.31055786 957.26291249 -1654.06005859 954.05419922 C-1650.96793218 952.47185721 -1647.8588809 950.92408173 -1644.75 949.375 C-1643.44655721 948.7227709 -1642.14317601 948.0704187 -1640.83984375 947.41796875 C-1637.50238752 945.74887412 -1634.16227598 944.08517079 -1630.82113647 942.42346191 C-1628.28736206 941.16288909 -1625.75442115 939.90064651 -1623.22155762 938.63824463 C-1621.95784267 938.00889212 -1620.69376868 937.38026001 -1619.42932129 936.75238037 C-1617.63554043 935.8615384 -1615.84313924 934.96792006 -1614.05078125 934.07421875 C-1613.00575439 933.55432373 -1611.96072754 933.03442871 -1610.8840332 932.4987793 C-1608.00894829 931.04844293 -1608.00894829 931.04844293 -1605.39282227 929.39770508 C-1603.13580094 928.0793246 -1601.16053745 927.29378491 -1598.6640625 926.5625 C-1595.02741786 925.40381669 -1591.78313194 923.99607318 -1588.44844246 922.14849091 C-1581.5588704 918.33231997 -1574.5773313 914.79900539 -1567.44970703 911.45117188 C-1550.26967821 903.29961961 -1533.29812549 894.7221364 -1516.29307699 886.21370125 C-1511.43810635 883.78493325 -1506.58214489 881.35814756 -1501.72634888 878.93103027 C-1493.59826075 874.86788952 -1485.47100632 870.80308505 -1477.34423828 866.73730469 C-1467.95712151 862.04101026 -1458.5685499 857.34763415 -1449.17924297 852.65572023 C-1441.08036688 848.60855013 -1432.98227012 844.55982397 -1424.88482487 840.50979185 C-1420.06367353 838.09843817 -1415.2422563 835.68762037 -1410.42013168 833.2782135 C-1405.90299741 831.02108971 -1401.38684464 828.76201414 -1396.8714447 826.50142288 C-1395.21616513 825.67312214 -1393.56054505 824.84550149 -1391.90456009 824.01861191 C-1389.64482412 822.89011041 -1387.38633487 821.75915148 -1385.12814331 820.62756348 C-1384.47358937 820.30140187 -1383.81903543 819.97524026 -1383.14464653 819.63919497 C-1379.66979142 817.89432588 -1376.30531198 816.04770582 -1373 814 C-1369.18671685 811.6498312 -1365.28020255 809.57428972 -1361.26953125 807.5859375 C-1360.28561905 807.0950766 -1360.28561905 807.0950766 -1359.28182983 806.59429932 C-1357.86528298 805.88792053 -1356.44827498 805.1824659 -1355.03085327 804.47784424 C-1352.78499309 803.36132506 -1350.54041234 802.24227083 -1348.29614258 801.12255859 C-1342.7235487 798.34292915 -1337.14878642 795.56765928 -1331.57409668 792.79223633 C-1326.85784147 790.44398632 -1322.14241477 788.09408771 -1317.42807007 785.74200439 C-1315.22149809 784.64194927 -1313.01373104 783.54431929 -1310.8059082 782.44677734 C-1309.447369 781.7693248 -1308.08888619 781.09175916 -1306.73046875 780.4140625 C-1306.12045013 780.11163635 -1305.51043152 779.80921021 -1304.88192749 779.49761963 C-1301.49258392 777.80315677 -1298.22267695 775.99265028 -1295 774 C-1283.27442863 766.82347973 -1270.84554857 760.89799875 -1258.41015625 755.07421875 C-1245.94597597 749.25921899 -1245.94597597 749.25921899 -1234.2421875 742.078125 C-1230.34721126 739.58158601 -1226.32231774 737.67849734 -1222.125 735.75 C-1220.43686716 734.96229231 -1218.74937794 734.17320398 -1217.0625 733.3828125 C-1215.79599609 732.78968262 -1215.79599609 732.78968262 -1214.50390625 732.18457031 C-1210.68706659 730.37886575 -1206.90208338 728.51220766 -1203.125 726.625 C-1202.15457764 726.14305176 -1202.15457764 726.14305176 -1201.16455078 725.65136719 C-1196.8869348 723.50633021 -1192.82130703 721.12589169 -1188.75439453 718.61181641 C-1185.74774947 716.85238805 -1182.6848011 715.29490736 -1179.5625 713.75 C-1178.95994385 713.45061523 -1178.3573877 713.15123047 -1177.73657227 712.84277344 C-1175.18103598 711.57311443 -1172.6231296 710.30826199 -1170.06542969 709.04296875 C-1168.18862068 708.11364712 -1166.31304103 707.18187732 -1164.4375 706.25 C-1163.32246094 705.69828125 -1162.20742187 705.1465625 -1161.05859375 704.578125 C-1158.29278337 703.15106575 -1155.64880463 701.63135455 -1153 700 C-1149.27467875 697.70563683 -1145.48427955 695.69048745 -1141.5625 693.75 C-1140.95994385 693.45061523 -1140.3573877 693.15123047 -1139.73657227 692.84277344 C-1137.18103598 691.57311443 -1134.6231296 690.30826199 -1132.06542969 689.04296875 C-1130.18862068 688.11364712 -1128.31304103 687.18187732 -1126.4375 686.25 C-1125.32246094 685.69828125 -1124.20742187 685.1465625 -1123.05859375 684.578125 C-1120.29278337 683.15106575 -1117.64880463 681.63135455 -1115 680 C-1111.27467875 677.70563683 -1107.48427955 675.69048745 -1103.5625 673.75 C-1102.95994385 673.45061523 -1102.3573877 673.15123047 -1101.73657227 672.84277344 C-1099.18103598 671.57311443 -1096.6231296 670.30826199 -1094.06542969 669.04296875 C-1092.18862068 668.11364712 -1090.31304103 667.18187732 -1088.4375 666.25 C-1087.32246094 665.69828125 -1086.20742187 665.1465625 -1085.05859375 664.578125 C-1082.29278337 663.15106575 -1079.64880463 661.63135455 -1077 660 C-1073.54954804 657.88379571 -1070.0669217 655.9799899 -1066.4375 654.1875 C-1065.39335937 653.66929687 -1064.34921875 653.15109375 -1063.2734375 652.6171875 C-1061.09114583 651.5390625 -1058.90885417 650.4609375 -1056.7265625 649.3828125 C-1055.68242187 648.86460937 -1054.63828125 648.34640625 -1053.5625 647.8125 C-1052.61503906 647.34457031 -1051.66757813 646.87664063 -1050.69140625 646.39453125 C-1047.27775035 644.62577195 -1044.02674049 642.65370955 -1040.78515625 640.58984375 C-1035.98447052 637.84948037 -1030.90017235 635.66967567 -1025.86132812 633.40429688 C-1024.62866211 632.83485352 -1024.62866211 632.83485352 -1023.37109375 632.25390625 C-1022.62786865 631.91689697 -1021.88464355 631.5798877 -1021.11889648 631.23266602 C-1018.8877495 630.05871558 -1018.8877495 630.05871558 -1017.0546875 628.02734375 C-1014.7565564 625.75979615 -1012.67734726 624.65924677 -1009.75390625 623.30859375 C-1008.75166016 622.83873047 -1007.74941406 622.36886719 -1006.71679688 621.88476562 C-1005.67587891 621.40716797 -1004.63496094 620.92957031 -1003.5625 620.4375 C-1001.50027102 619.48008232 -999.43903725 618.52051747 -997.37890625 617.55859375 C-996.4669751 617.13892334 -995.55504395 616.71925293 -994.61547852 616.28686523 C-991.19372869 614.60329916 -987.99910987 612.63611757 -984.78515625 610.58984375 C-979.98447052 607.84948037 -974.90017235 605.66967567 -969.86132812 603.40429688 C-968.62866211 602.83485352 -968.62866211 602.83485352 -967.37109375 602.25390625 C-966.62786865 601.91689697 -965.88464355 601.5798877 -965.11889648 601.23266602 C-962.88465068 600.05739872 -962.88465068 600.05739872 -961.04321289 598.01147461 C-958.78123022 595.78462848 -956.8470095 594.80086266 -953.9375 593.5625 C-952.97585937 593.14226563 -952.01421875 592.72203125 -951.0234375 592.2890625 C-949.0078125 591.4296875 -946.9921875 590.5703125 -944.9765625 589.7109375 C-944.01492187 589.29070313 -943.05328125 588.87046875 -942.0625 588.4375 C-941.18722656 588.06496094 -940.31195312 587.69242188 -939.41015625 587.30859375 C-936.90892657 586.09827307 -936.90892657 586.09827307 -935 584 C-932.76223327 581.76223327 -930.83840711 580.79720126 -927.9375 579.5625 C-926.97585937 579.14226563 -926.01421875 578.72203125 -925.0234375 578.2890625 C-923.0078125 577.4296875 -920.9921875 576.5703125 -918.9765625 575.7109375 C-918.01492187 575.29070313 -917.05328125 574.87046875 -916.0625 574.4375 C-915.18722656 574.06496094 -914.31195312 573.69242188 -913.41015625 573.30859375 C-910.90892657 572.09827307 -910.90892657 572.09827307 -909 570 C-906.76223327 567.76223327 -904.83840711 566.79720126 -901.9375 565.5625 C-900.97585937 565.14226563 -900.01421875 564.72203125 -899.0234375 564.2890625 C-897.0078125 563.4296875 -894.9921875 562.5703125 -892.9765625 561.7109375 C-892.01492187 561.29070313 -891.05328125 560.87046875 -890.0625 560.4375 C-889.18722656 560.06496094 -888.31195312 559.69242188 -887.41015625 559.30859375 C-884.76023767 557.8698211 -883.09154683 556.15154254 -881 554 C-879.21655273 552.95092773 -879.21655273 552.95092773 -877.43359375 552.18359375 C-876.78326172 551.89419922 -876.13292969 551.60480469 -875.46289062 551.30664062 C-874.79451172 551.01982422 -874.12613281 550.73300781 -873.4375 550.4375 C-868.63148212 548.53667857 -868.63148212 548.53667857 -864.54101562 545.51367188 C-862.76565983 543.76981796 -861.20436298 543.04370217 -858.91015625 542.09765625 C-858.12576172 541.76443359 -857.34136719 541.43121094 -856.53320312 541.08789062 C-854.89078181 540.40625332 -853.24755496 539.72655363 -851.60351562 539.04882812 C-847.18171507 537.16620755 -844.36573108 535.47608292 -841 532 C-838.55592914 530.63624529 -836.00787887 529.54050733 -833.4375 528.4375 C-828.62231207 526.52242522 -828.62231207 526.52242522 -824.50390625 523.50390625 C-821.5612496 520.5612496 -817.23243802 519.25567296 -813.44921875 517.60546875 C-810.04190985 516.07990835 -807.56314172 514.67964817 -805 512 C-802.24154092 510.63738768 -799.43053493 509.47086949 -796.59375 508.28125 C-794.03602885 507.20159329 -794.03602885 507.20159329 -792.625 505.5625 C-789.57075176 502.62572284 -785.30031004 501.28527809 -781.44921875 499.60546875 C-778.04190985 498.07990835 -775.56314172 496.67964817 -773 494 C-770.24154092 492.63738768 -767.43053493 491.47086949 -764.59375 490.28125 C-762.1027173 489.05073987 -760.91873838 487.92878414 -759 486 C-757.23811435 485.10542029 -755.4419877 484.27657556 -753.625 483.5 C-748.77213291 481.41447034 -744.46121628 479.01649828 -740.125 476 C-737.76994554 474.49276515 -735.8550091 473.45985629 -733.3125 472.4375 C-730.11267934 471.30331477 -730.11267934 471.30331477 -728.62890625 469.56640625 C-726.50923316 467.52806354 -724.3230358 466.65313311 -721.625 465.5 C-716.77213291 463.41447034 -712.46121628 461.01649828 -708.125 458 C-705.76994554 456.49276515 -703.8550091 455.45985629 -701.3125 454.4375 C-698.28755681 453.1247888 -697.13285021 452.32674568 -695 450 C-690.49178873 447.13258647 -685.72956001 444.84713143 -680.9375 442.5 C-677.14638322 440.56411058 -673.61829702 438.43011966 -670.125 436 C-667.76994554 434.49276515 -665.8550091 433.45985629 -663.3125 432.4375 C-660.28755681 431.1247888 -659.13285021 430.32674568 -657 428 C-653.46002742 425.67373231 -649.70943086 423.84349027 -645.91796875 421.97265625 C-643.53502779 420.76419943 -641.26861096 419.41021762 -639 418 C-634 415 -634 415 -631.5625 413.5625 C-629.71243726 412.43441296 -627.90379237 411.23742078 -626.125 410 C-623.76994554 408.49276515 -621.8550091 407.45985629 -619.3125 406.4375 C-616.10122577 405.28480904 -616.10122577 405.28480904 -614.5 403.5 C-612.13768088 401.13768088 -609.04409504 400.30461216 -606 399 C-605.505 398.505 -605.01 398.01 -604.5 397.5 C-602.13768088 395.13768088 -599.04409504 394.30461216 -596 393 C-595.505 392.505 -595.01 392.01 -594.5 391.5 C-592.13768088 389.13768088 -589.04409504 388.30461216 -586 387 C-585.505 386.505 -585.01 386.01 -584.5 385.5 C-582.13768088 383.13768088 -579.04409504 382.30461216 -576 381 C-575.505 380.505 -575.01 380.01 -574.5 379.5 C-572.13768088 377.13768088 -569.04409504 376.30461216 -566 375 C-565.54625 374.525625 -565.0925 374.05125 -564.625 373.5625 C-561.81747543 370.86295715 -558.1457053 369.77077964 -554.59375 368.28125 C-552.14152011 367.06990753 -550.80435035 366.00059389 -549 364 C-545.45145733 361.66810053 -541.70669367 359.85526553 -537.8671875 358.0625 C-535.93964516 357.07578353 -535.93964516 357.07578353 -534.4765625 355.46875 C-532.12408945 353.1287239 -529.02313103 352.29562759 -526 351 C-524.37485532 349.54166642 -524.37485532 349.54166642 -523 348 C-519.45145733 345.66810053 -515.70669367 343.85526553 -511.8671875 342.0625 C-509.93964516 341.07578353 -509.93964516 341.07578353 -508.4765625 339.46875 C-506.12408945 337.1287239 -503.02313103 336.29562759 -500 335 C-498.37485532 333.54166642 -498.37485532 333.54166642 -497 332 C-493.45145733 329.66810053 -489.70669367 327.85526553 -485.8671875 326.0625 C-483.93964516 325.07578353 -483.93964516 325.07578353 -482.4765625 323.46875 C-480.12408945 321.1287239 -477.02313103 320.29562759 -474 319 C-472.37485532 317.54166642 -472.37485532 317.54166642 -471 316 C-469.34928604 314.97388051 -467.68029994 313.97691857 -466 313 C-464.6078125 312.0409375 -464.6078125 312.0409375 -463.1875 311.0625 C-460.14445879 309.09347333 -457.11669616 307.53686431 -453.83203125 306.02734375 C-451.93370571 305.07254092 -451.93370571 305.07254092 -450.48046875 303.47265625 C-448.12582 301.13043309 -445.02604069 300.29687458 -442 299 C-440.37485532 297.54166642 -440.37485532 297.54166642 -439 296 C-437.34928604 294.97388051 -435.68029994 293.97691857 -434 293 C-431.0173055 291.03269086 -428.05817106 289.04046682 -425.125 287 C-422.10426666 285.06673066 -419.08362672 283.52166672 -415.83203125 282.02734375 C-413.93370571 281.07254092 -413.93370571 281.07254092 -412.48046875 279.47265625 C-410.12582 277.13043309 -407.02604069 276.29687458 -404 275 C-402.37485532 273.54166642 -402.37485532 273.54166642 -401 272 C-399.34928604 270.97388051 -397.68029994 269.97691857 -396 269 C-393.9934562 267.67653494 -391.99371825 266.34270821 -390 265 C-388 263.66666667 -386 262.33333333 -384 261 C-382.6078125 260.0409375 -382.6078125 260.0409375 -381.1875 259.0625 C-378.71368515 257.46179628 -376.27057251 256.02864878 -373.6875 254.625 C-368.92906167 252.01298825 -364.4857948 249.05034046 -360 246 C-357.56546188 244.370551 -355.12637253 242.74795212 -352.6875 241.125 C-349.02607604 238.68724924 -345.36663944 236.24704515 -341.71875 233.7890625 C-336.34250805 230.17256985 -330.9195469 226.71366383 -325.34375 223.4140625 C-321.4712337 221.07764433 -317.74663349 218.53150911 -314 216 C-311.56448117 214.37202533 -309.12584977 212.74873041 -306.6875 211.125 C-305.38276252 210.25528331 -304.07807482 209.38549193 -302.7734375 208.515625 C-291.88671875 201.2578125 -291.88671875 201.2578125 -281 194 C-280.01644531 193.34386719 -279.03289063 192.68773438 -278.01953125 192.01171875 C-275.9560175 190.63693275 -273.89083479 189.26464938 -271.82421875 187.89453125 C-265.3849354 183.62582444 -265.3849354 183.62582444 -259.0625 179.1875 C-256 177 -256 177 -253.3125 175.4375 C-250.94660572 174.10608937 -250.94660572 174.10608937 -249.25 172.125 C-247.13949312 170.1317435 -245.4091832 169.04351031 -242.875 167.6875 C-238.63666471 165.41696324 -234.78653471 162.82200135 -230.87890625 160.02734375 C-226.78874205 157.14702459 -222.61600038 154.39514198 -218.44091797 151.63989258 C-215.32413731 149.57605585 -212.24554528 147.47628522 -209.2109375 145.29296875 C-206 143 -206 143 -203.3125 141.4375 C-200.94660572 140.10608937 -200.94660572 140.10608937 -199.25 138.125 C-196.53832199 135.56397077 -193.65088011 134.10507427 -190.375 132.359375 C-187.30092046 130.59986895 -184.57285434 128.51499782 -181.78125 126.34375 C-180 125 -180 125 -177.25 123.375 C-174.9351175 122.09838267 -174.9351175 122.09838267 -173.25 120.125 C-171.11151672 118.10532135 -169.32189779 116.99902758 -166.75 115.625 C-161.61468436 112.8793857 -156.58020847 109.71892936 -152.546875 105.46875 C-150.71976246 103.73391587 -148.86790958 102.76559224 -146.625 101.625 C-143.72919591 100.07001838 -141.85344569 98.85344569 -139.5 96.5 C-136.62531421 93.62531421 -133.69360904 92.12821529 -130.125 90.25 C-127.78264884 88.99178398 -127.78264884 88.99178398 -125.5 86.5 C-122.67476923 83.67476923 -119.85065629 82.17806017 -116.34765625 80.32421875 C-112.08703466 77.92097296 -107.92453417 75.02800375 -104.546875 71.46875 C-102.71976246 69.73391587 -100.86790958 68.76559224 -98.625 67.625 C-95.72919591 66.07001838 -93.85344569 64.85344569 -91.5 62.5 C-88.64069731 59.64069731 -85.74058381 58.12403449 -82.1953125 56.24609375 C-79.14153843 54.51272377 -76.64149993 52.30428717 -74 50 C-70.69118708 47.44728899 -67.3224535 44.97350783 -63.95703125 42.49609375 C-60.7037133 40.08599554 -57.57139058 37.64827469 -54.5625 34.9375 C-51.32787391 32.0951741 -47.84962497 30.21453302 -44.0546875 28.21484375 C-41.77407712 26.98140457 -41.77407712 26.98140457 -39.5 24.5 C-36.62531421 21.62531421 -33.69360904 20.12821529 -30.125 18.25 C-27.78264884 16.99178398 -27.78264884 16.99178398 -25.5 14.5 C-22.63042956 11.63042956 -19.70748739 10.13478193 -16.14453125 8.26171875 C-13.30359962 6.5902781 -11.25444328 4.38326862 -9 2 C-5.57013509 -0.25084885 -4.49352934 0 0 0 Z " fill="#F0D2E8" transform="translate(3600,2689)"/>
<path d="M0 0 C444.076875 -0.165 888.15375 -0.33 1345.6875 -0.5 C1556.43121216 -0.60924805 1556.43121216 -0.60924805 1771.43237305 -0.72070312 C1942.28869629 -0.75683594 1942.28869629 -0.75683594 2022.13752747 -0.7635498 C2052.08954935 -0.76682067 2052.08954935 -0.76682067 2082.04157066 -0.77357483 C2082.85172729 -0.77381963 2083.66188392 -0.77406442 2084.49659075 -0.77431664 C2104.99624811 -0.7807108 2125.49589976 -0.79484321 2145.99555206 -0.8102417 C2146.90460281 -0.81092417 2147.81365355 -0.81160665 2148.75025129 -0.8123098 C2163.53844276 -0.8234478 2178.32663384 -0.83509188 2193.11482487 -0.84680475 C2235.92440068 -0.88070505 2278.73396126 -0.91046807 2321.54355222 -0.91217375 C2322.85347378 -0.91222888 2322.85347378 -0.91222888 2324.1898584 -0.91228512 C2343.29146595 -0.91301154 2362.39307271 -0.91156191 2381.49467993 -0.90802243 C2389.13275609 -0.90664262 2396.77083227 -0.90556176 2404.40890849 -0.90457821 C2405.24198198 -0.90446315 2406.07505547 -0.90434809 2406.93337362 -0.90422955 C2433.17587115 -0.90074623 2459.41827142 -0.92150895 2485.6607432 -0.95694821 C2511.21757121 -0.99136664 2536.77427764 -1.001858 2562.33112077 -0.97675214 C2565.82142765 -0.97332735 2569.31173472 -0.97018358 2572.80204201 -0.96720886 C2573.82707681 -0.96631924 2573.82707681 -0.96631924 2574.87281938 -0.96541165 C2586.34756225 -0.9562324 2597.82203945 -0.97876235 2609.29673858 -1.00973099 C2619.22223755 -1.03435831 2629.1474491 -1.03040479 2639.07293874 -1.00240682 C2644.71432746 -0.98731866 2650.35493656 -0.98510585 2655.99626763 -1.01788226 C2661.1046125 -1.04733491 2666.21152655 -1.04056066 2671.31981248 -1.00381017 C2673.16010215 -0.99708689 2675.00050066 -1.0039742 2676.84067521 -1.02562709 C2690.55894269 -1.17650196 2690.55894269 -1.17650196 2694.15331757 1.75800249 C2695.48189797 3.83214036 2696.2766103 5.65610267 2697 8 C2697.47566406 8.83789062 2697.95132813 9.67578125 2698.44140625 10.5390625 C2698.81136719 11.22742187 2699.18132813 11.91578125 2699.5625 12.625 C2700.97577632 15.20864577 2702.413144 17.61345625 2704.0625 20.0625 C2705.94903955 22.92273738 2707.4296387 25.77779722 2708.875 28.875 C2710.02811243 31.15332747 2710.02811243 31.15332747 2711.86328125 33.69921875 C2714.38268647 37.59117014 2716.26487553 41.60332572 2718.1875 45.8125 C2721.12644216 52.13952499 2724.18371195 58.36235973 2727.5 64.5 C2731.11234182 71.19652678 2734.40890709 78.0022293 2737.61621094 84.90087891 C2740.15655992 90.32657623 2742.88940994 95.61208712 2745.75 100.875 C2749.00645755 106.8760072 2751.67192036 112.8100834 2753.9296875 119.265625 C2755.02693687 122.06881682 2756.44212339 124.43138306 2758 127 C2758.80859375 129.10546875 2758.80859375 129.10546875 2759.4375 131.1875 C2761.42166421 137.43086488 2763.8521691 143.47477202 2766.5625 149.4375 C2767.80493029 152.51656636 2768.67417063 155.42009742 2769.5 158.625 C2770.27631838 161.60897376 2770.90945376 163.84908961 2772.5 166.5 C2774.54817566 169.9136261 2775.26739281 173.46637818 2776.25 177.3046875 C2776.98645478 180.18283394 2776.98645478 180.18283394 2778.5 183.5 C2780.16832452 187.39275721 2781.18161221 191.26687904 2782.23828125 195.359375 C2782.8949908 197.6359681 2783.66645262 199.62161954 2784.6875 201.75 C2786.15674641 205.38813397 2786.2379861 208.11289368 2786 212 C2786.66 212 2787.32 212 2788 212 C2788 214.64 2788 217.28 2788 220 C2788.66 220 2789.32 220 2790 220 C2790 222.64 2790 225.28 2790 228 C2790.66 228 2791.32 228 2792 228 C2792 231.3 2792 234.6 2792 238 C2792.66 238 2793.32 238 2794 238 C2794 241.96 2794 245.92 2794 250 C2794.66 250 2795.32 250 2796 250 C2796 258.58 2796 267.16 2796 276 C2796.66 276 2797.32 276 2798 276 C2798.02464513 282.1055471 2798.04283371 288.21106551 2798.05493164 294.31665039 C2798.05997288 296.39543156 2798.06680574 298.47420916 2798.07543945 300.55297852 C2798.08751422 303.53402586 2798.09323024 306.51502649 2798.09765625 309.49609375 C2798.10281754 310.43150497 2798.10797882 311.3669162 2798.11329651 312.33067322 C2798.11337204 313.19149002 2798.11344757 314.05230682 2798.11352539 314.93920898 C2798.115746 315.70087875 2798.11796661 316.46254852 2798.12025452 317.24729919 C2798 319 2798 319 2797 320 C2796.85361067 322.13245482 2796.77254188 324.26945337 2796.71875 326.40625 C2796.68136719 327.70691406 2796.64398437 329.00757813 2796.60546875 330.34765625 C2796.5697606 331.7317567 2796.53461129 333.11587168 2796.5 334.5 C2796.43253065 337.19814351 2796.35879127 339.89584869 2796.28125 342.59375 C2796.25095703 343.79708984 2796.22066406 345.00042969 2796.18945312 346.24023438 C2796 349 2796 349 2795 350 C2794.78936893 352.50416935 2794.62427923 354.99140081 2794.5 357.5 C2794.13513514 364.86486486 2794.13513514 364.86486486 2793 366 C2792.79162581 367.82906235 2792.63250341 369.66388134 2792.5 371.5 C2792.11111111 376.88888889 2792.11111111 376.88888889 2791 378 C2790.79162581 379.82906235 2790.63250341 381.66388134 2790.5 383.5 C2790.11111111 388.88888889 2790.11111111 388.88888889 2789 390 C2788.79300437 391.49496842 2788.63320741 392.9966592 2788.5 394.5 C2788.11111111 398.88888889 2788.11111111 398.88888889 2787 400 C2786.7525 401.7325 2786.7525 401.7325 2786.5 403.5 C2786 407 2786 407 2785 408 C2784.7525 409.7325 2784.7525 409.7325 2784.5 411.5 C2784 415 2784 415 2783 416 C2782.7525 417.7325 2782.7525 417.7325 2782.5 419.5 C2782 423 2782 423 2781 424 C2780.87625 425.03125 2780.7525 426.0625 2780.625 427.125 C2779.97234933 431.17143415 2778.60783066 434.24839514 2777 438 C2776.7525 439.7325 2776.7525 439.7325 2776.5 441.5 C2775.94209779 445.40531547 2774.54890774 448.38588193 2773 452 C2772.7525 453.7325 2772.7525 453.7325 2772.5 455.5 C2772.04119495 458.71163535 2771.17991772 461.05935129 2769.8203125 463.9765625 C2768.46089724 467.32978681 2767.68913055 470.83920761 2766.84375 474.3515625 C2766 477 2766 477 2764.59375 479.2890625 C2762.44945059 482.93647375 2761.28141558 486.73222822 2760 490.75 C2759.5 492.28645833 2759 493.82291667 2758.5 495.359375 C2758.25443359 496.11992187 2758.00886719 496.88046875 2757.75585938 497.6640625 C2756.9790744 500.06466929 2756.19652771 502.46317492 2755.40625 504.859375 C2755.05530273 505.92623535 2755.05530273 505.92623535 2754.69726562 507.01464844 C2753.62253398 510.0747737 2752.27729214 513.01965166 2751 516 C2750.50794632 517.43313995 2750.02953205 518.87101188 2749.5625 520.3125 C2747.93751603 525.30594032 2745.98427364 530.14040155 2744 535 C2743.3319891 536.66612835 2742.66531692 538.33279407 2742 540 C2741.66871094 540.82371094 2741.33742188 541.64742187 2740.99609375 542.49609375 C2740.32985804 544.17082744 2739.6762583 545.85064115 2739.03515625 547.53515625 C2737.41908735 551.73433931 2735.69656235 555.666632 2733.4375 559.5625 C2731.7822814 562.42787842 2730.56621839 565.07988407 2729.625 568.25 C2728.04966244 573.42869589 2725.41020026 577.91912586 2722.71875 582.59375 C2721.37063181 585.26547515 2720.4290872 587.5917235 2719.5390625 590.4140625 C2718.11787664 594.88037843 2716.152892 598.79228607 2713.875 602.875 C2710.54326798 608.99685242 2707.43784354 615.17988979 2704.5 621.5 C2699.91489603 631.33155978 2695.13623096 641.15721158 2689.51953125 650.44921875 C2686.95602977 654.75247444 2684.70730752 659.22703692 2682.40429688 663.67382812 C2680.15578108 667.96853147 2677.70081934 671.96818139 2675 676 C2673.96708324 677.98320018 2672.9662501 679.98347806 2672 682 C2669.92133961 686.24088501 2667.66237982 690.09517627 2665 694 C2664.36044811 695.28452371 2663.73647219 696.57687461 2663.125 697.875 C2661.71628858 700.79147286 2660.14200772 703.2182351 2658.125 705.75 C2654.85329185 709.93051597 2652.67577763 714.46281145 2650.37890625 719.23046875 C2648.80790533 722.38582188 2647.03211825 725.12700523 2645 728 C2644.505 728.825 2644.01 729.65 2643.5 730.5 C2642.42963551 732.28394082 2641.29697417 734.03110455 2640.125 735.75 C2638.4791668 738.26715666 2637.0414819 740.73271646 2635.625 743.375 C2633.5004648 747.2699812 2631.05729451 750.72387494 2628.34375 754.2265625 C2626.70754671 756.38597033 2625.35662649 758.65673606 2624 761 C2622.67653494 763.0065438 2621.34270821 765.00628175 2620 767 C2619.34 767.99 2618.68 768.98 2618 770 C2616.70188746 771.9471688 2615.39011092 773.88532286 2614.0625 775.8125 C2612.44869339 778.30656476 2611.02656597 780.76441545 2609.625 783.375 C2607.5004648 787.2699812 2605.05729451 790.72387494 2602.34375 794.2265625 C2600.70754671 796.38597033 2599.35662649 798.65673606 2598 801 C2596.67653494 803.0065438 2595.34270821 805.00628175 2594 807 C2593.34 807.99 2592.68 808.98 2592 810 C2587.33333333 817 2582.66666667 824 2578 831 C2577.319375 832.051875 2576.63875 833.10375 2575.9375 834.1875 C2574.37874047 836.45021545 2572.91410616 838.08589384 2571 840 C2569.97388051 841.65071396 2568.97691857 843.31970006 2568 845 C2566.67653494 847.0065438 2565.34270821 849.00628175 2564 851 C2563.319375 852.051875 2562.63875 853.10375 2561.9375 854.1875 C2560.37874047 856.45021545 2558.91410616 858.08589384 2557 860 C2555.97388051 861.65071396 2554.97691857 863.31970006 2554 865 C2552.67653494 867.0065438 2551.34270821 869.00628175 2550 871 C2549.319375 872.051875 2548.63875 873.10375 2547.9375 874.1875 C2546.37874047 876.45021545 2544.91410616 878.08589384 2543 880 C2542.505 880.825 2542.01 881.65 2541.5 882.5 C2540.14190062 884.76349896 2538.84048077 886.15951923 2537 888 C2535.97388051 889.65071396 2534.97691857 891.31970006 2534 893 C2531.86035018 896.34320284 2529.79261875 899.20738125 2527 902 C2526.505 902.825 2526.01 903.65 2525.5 904.5 C2524.14190062 906.76349896 2522.84048077 908.15951923 2521 910 C2520.505 910.825 2520.01 911.65 2519.5 912.5 C2518.14190062 914.76349896 2516.84048077 916.15951923 2515 918 C2513.97388051 919.65071396 2512.97691857 921.31970006 2512 923 C2509.86035018 926.34320284 2507.79261875 929.20738125 2505 932 C2504.54625 932.78375 2504.0925 933.5675 2503.625 934.375 C2501.76579002 937.3783392 2499.49229819 939.50770181 2497 942 C2495.97695052 943.65261839 2494.97383946 945.31791365 2494 947 C2493 948 2492 949 2491 950 C2490.505 950.825 2490.01 951.65 2489.5 952.5 C2488.14190062 954.76349896 2486.84048077 956.15951923 2485 958 C2484.38125 959.11375 2484.38125 959.11375 2483.75 960.25 C2481.73343202 963.41889254 2479.32903986 965.69882702 2476.640625 968.296875 C2474.67697923 970.33532633 2473.37040277 972.53327501 2472 975 C2471 976 2470 977 2469 978 C2468.566875 978.763125 2468.13375 979.52625 2467.6875 980.3125 C2465.35513083 984.02701386 2462.32556539 986.71846476 2459.15625 989.71875 C2456.99382172 992.00653644 2455.54809813 994.27239854 2454 997 C2453 998 2452 999 2451 1000 C2450.38125 1001.11375 2450.38125 1001.11375 2449.75 1002.25 C2447.35629364 1006.01153856 2444.23922867 1008.8530381 2441.02734375 1011.89453125 C2438.91035673 1013.94229799 2437.10582966 1015.81720331 2435.625 1018.375 C2432.70921106 1023.08512059 2428.42214361 1026.65108091 2424.44921875 1030.47265625 C2423.79566406 1031.11074219 2423.14210938 1031.74882813 2422.46875 1032.40625 C2421.87513672 1032.97666016 2421.28152344 1033.54707031 2420.66992188 1034.13476562 C2418.89945619 1035.98813318 2418.89945619 1035.98813318 2417.58203125 1038.41796875 C2415.77181222 1041.37242499 2413.70145999 1043.49171512 2411.21875 1045.90625 C2410.29449219 1046.81503906 2409.37023438 1047.72382812 2408.41796875 1048.66015625 C2406.95771655 1050.08307944 2405.49570248 1051.50417731 2404.03369141 1052.92529297 C2402.61208562 1054.31055767 2401.1965968 1055.70209101 2399.78125 1057.09375 C2398.93626953 1057.91552734 2398.09128906 1058.73730469 2397.22070312 1059.58398438 C2394.97105844 1061.84935289 2394.97105844 1061.84935289 2393.69290066 1064.30427456 C2391.71349098 1067.45622858 2389.32307694 1069.94818521 2386.69288635 1072.54762268 C2386.15819998 1073.0840179 2385.62351361 1073.62041312 2385.07262462 1074.17306274 C2383.28563415 1075.96333876 2381.49160571 1077.74638785 2379.69750977 1079.52954102 C2378.4125037 1080.81398274 2377.12793826 1082.09886541 2375.84378052 1083.38415527 C2372.35859557 1086.86991407 2368.86727724 1090.34947067 2365.37483335 1093.82795453 C2361.720263 1097.47001276 2358.07136467 1101.11774461 2354.42185974 1104.76487732 C2347.50690357 1111.67361626 2340.58686651 1118.57724268 2333.66499037 1125.47904772 C2325.80096594 1133.3207585 2317.94258081 1141.16811002 2310.08468544 1149.01596177 C2296.65343473 1162.42984592 2283.21794114 1175.83946809 2269.77778625 1189.24443054 C2269.21061526 1189.81012235 2268.64344426 1190.37581416 2268.05908626 1190.95864815 C2267.01642629 1191.99856436 2265.97373894 1193.03845314 2264.93101698 1194.07830721 C2262.87641443 1196.12742981 2260.82637149 1198.17844042 2258.80268764 1200.25820827 C2257 1202 2257 1202 2254.72290039 1203.28930664 C2250.75595208 1205.78158736 2247.71043232 1209.04476523 2244.43359375 1212.37109375 C2243.7176857 1213.0898317 2243.00177765 1213.80856964 2242.26417542 1214.54908752 C2239.98386388 1216.84055809 2237.71060577 1219.13888346 2235.4375 1221.4375 C2233.90476003 1222.98027799 2232.37156169 1224.52260073 2230.83789062 1226.06445312 C2228.02375987 1228.89489434 2225.21224618 1231.72787719 2222.40405273 1234.56420898 C2221.80642624 1235.1665033 2221.20879974 1235.76879761 2220.59306335 1236.38934326 C2219.29316177 1237.70360062 2218.00219097 1239.02668625 2216.71386719 1240.35229492 C2215 1242 2215 1242 2212.14453125 1243.8671875 C2208.56138201 1246.29749742 2205.70132449 1249.0398646 2202.6875 1252.125 C2202.15060547 1252.66253906 2201.61371094 1253.20007812 2201.06054688 1253.75390625 C2198.17696783 1256.61083857 2198.17696783 1256.61083857 2196 1260 C2195.34 1260 2194.68 1260 2194 1260 C2194 1260.66 2194 1261.32 2194 1262 C2192.906875 1262.639375 2191.81375 1263.27875 2190.6875 1263.9375 C2186.6314353 1266.35078581 2183.36779388 1269.35078388 2180.0625 1272.6875 C2179.5780542 1273.17532959 2179.0936084 1273.66315918 2178.59448242 1274.16577148 C2175.97487776 1276.84370245 2175.97487776 1276.84370245 2174 1280 C2173.34 1280 2172.68 1280 2172 1280 C2172 1280.66 2172 1281.32 2172 1282 C2170.53125 1282.97265625 2170.53125 1282.97265625 2168.5 1284.0625 C2165.0453409 1286.11711304 2162.69807168 1288.29256515 2160.125 1291.375 C2156.584929 1295.58670503 2152.77046444 1298.41643159 2148.19921875 1301.43359375 C2145.59534407 1303.28821852 2143.85093605 1305.40868953 2142 1308 C2139 1310 2139 1310 2136 1310 C2136 1310.66 2136 1311.32 2136 1312 C2134.11196053 1313.5110253 2132.22469311 1314.92332636 2130.25 1316.3125 C2126.11415479 1319.25454448 2123.13250059 1322.03812043 2120 1326 C2117.59765625 1327.84375 2117.59765625 1327.84375 2115.0625 1329.5 C2112.12460716 1331.4744368 2109.47395631 1333.34224366 2107.0625 1335.9375 C2106.381875 1336.618125 2105.70125 1337.29875 2105 1338 C2104.01 1338 2103.02 1338 2102 1338 C2102 1338.66 2102 1339.32 2102 1340 C2098.98534598 1343.12168316 2095.4864004 1345.67897574 2091.875 1348.0625 C2088.88451914 1349.93655488 2088.88451914 1349.93655488 2086.375 1352.6875 C2084.09295401 1354.90949215 2083.09320157 1355.65631094 2080 1356 C2080 1356.66 2080 1357.32 2080 1358 C2077.59976011 1360.12592676 2075.23520019 1361.86805843 2072.4375 1363.4375 C2069.60825206 1365.25112048 2068.0376244 1367.35108827 2066 1370 C2063 1372 2063 1372 2060 1372 C2060 1372.66 2060 1373.32 2060 1374 C2057.62105156 1376.10706861 2055.25574317 1377.85294768 2052.5 1379.4375 C2049.84775138 1380.9648657 2049.84775138 1380.9648657 2047.5 1383.5 C2045.10103497 1385.89896503 2042.88480481 1387.26911711 2040 1389 C2039.13375 1389.886875 2038.2675 1390.77375 2037.375 1391.6875 C2035 1394 2035 1394 2032 1394 C2032 1394.66 2032 1395.32 2032 1396 C2029.59976011 1398.12592676 2027.23520019 1399.86805843 2024.4375 1401.4375 C2021.60825206 1403.25112048 2020.0376244 1405.35108827 2018 1408 C2015 1410 2015 1410 2012 1410 C2012 1410.66 2012 1411.32 2012 1412 C2007.64705882 1416 2007.64705882 1416 2004 1416 C2004 1416.66 2004 1417.32 2004 1418 C2001.62105156 1420.10706861 1999.25574317 1421.85294768 1996.5 1423.4375 C1993.84775138 1424.9648657 1993.84775138 1424.9648657 1991.5 1427.5 C1989.10103497 1429.89896503 1986.88480481 1431.26911711 1984 1433 C1982.9171875 1434.1446875 1982.9171875 1434.1446875 1981.8125 1435.3125 C1979.24932696 1437.76175423 1977.04256673 1439.24658006 1974 1441 C1970.0531528 1443.27702723 1967.14625452 1445.67895356 1964 1449 C1962 1450.33333333 1960 1451.66666667 1958 1453 C1957.113125 1453.9075 1956.22625 1454.815 1955.3125 1455.75 C1953 1458 1953 1458 1950 1458 C1950 1458.66 1950 1459.32 1950 1460 C1948.02796675 1461.47601879 1946.05798416 1462.84124476 1944 1464.1875 C1939.23677017 1467.37979491 1934.86777791 1470.71440266 1930.625 1474.5859375 C1928.58090762 1476.36469097 1926.32091624 1477.60745026 1924 1479 C1922.71529757 1480.10913572 1921.44601039 1481.23623138 1920.1875 1482.375 C1916.91053954 1485.31681678 1913.57302729 1487.6638139 1909.76171875 1489.859375 C1907.90732296 1491.06000376 1906.54261569 1492.4277999 1905 1494 C1903.33333333 1495 1901.66666667 1496 1900 1497 C1899.505 1497.495 1899.01 1497.99 1898.5 1498.5 C1897 1500 1897 1500 1894.625 1501.375 C1891.86281498 1502.94631891 1891.86281498 1502.94631891 1889.5 1505.5 C1887.11274206 1507.88725794 1884.89890505 1509.32168655 1882 1511 C1881.505 1511.495 1881.01 1511.99 1880.5 1512.5 C1879 1514 1879 1514 1876.875 1515.25 C1874.23414746 1516.85747546 1871.92154041 1518.58529363 1869.5 1520.5 C1866.4348987 1522.92356847 1863.36987298 1525.01772178 1860 1527 C1859.505 1527.495 1859.01 1527.99 1858.5 1528.5 C1857 1530 1857 1530 1854.625 1531.375 C1851.86281498 1532.94631891 1851.86281498 1532.94631891 1849.5 1535.5 C1847.11274206 1537.88725794 1844.89890505 1539.32168655 1842 1541 C1841.505 1541.495 1841.01 1541.99 1840.5 1542.5 C1838.56503396 1544.43496604 1836.34110827 1545.59533504 1834 1547 C1833.46375 1547.556875 1832.9275 1548.11375 1832.375 1548.6875 C1831 1550 1831 1550 1828 1550 C1828 1550.66 1828 1551.32 1828 1552 C1826.35546875 1553.18359375 1826.35546875 1553.18359375 1824.1875 1554.4375 C1821.38831351 1556.06398541 1819.25217806 1557.68473572 1817 1560 C1815.33333333 1561 1813.66666667 1562 1812 1563 C1811.505 1563.495 1811.01 1563.99 1810.5 1564.5 C1809 1566 1809 1566 1806.625 1567.375 C1803.82715884 1568.96147157 1803.82715884 1568.96147157 1801.375 1571.6875 C1799 1574 1799 1574 1796 1574 C1796 1574.66 1796 1575.32 1796 1576 C1794.35546875 1577.18359375 1794.35546875 1577.18359375 1792.1875 1578.4375 C1789.38831351 1580.06398541 1787.25217806 1581.68473572 1785 1584 C1783.33333333 1585 1781.66666667 1586 1780 1587 C1779.46375 1587.556875 1778.9275 1588.11375 1778.375 1588.6875 C1777 1590 1777 1590 1774 1590 C1774 1590.66 1774 1591.32 1774 1592 C1772.35546875 1593.18359375 1772.35546875 1593.18359375 1770.1875 1594.4375 C1767.3887341 1596.06374103 1765.25179992 1597.68476909 1763 1600 C1762.21625 1600.45375 1761.4325 1600.9075 1760.625 1601.375 C1757.86281498 1602.94631891 1757.86281498 1602.94631891 1755.5 1605.5 C1753.11274206 1607.88725794 1750.89890505 1609.32168655 1748 1611 C1747.46375 1611.556875 1746.9275 1612.11375 1746.375 1612.6875 C1745 1614 1745 1614 1742 1614 C1742 1614.66 1742 1615.32 1742 1616 C1740.35546875 1617.18359375 1740.35546875 1617.18359375 1738.1875 1618.4375 C1735.97715845 1619.72183325 1734.18903804 1620.80064226 1732.42578125 1622.66015625 C1731 1624 1731 1624 1728 1624 C1728 1624.66 1728 1625.32 1728 1626 C1726.35546875 1627.18359375 1726.35546875 1627.18359375 1724.1875 1628.4375 C1721.38831351 1630.06398541 1719.25217806 1631.68473572 1717 1634 C1715.33333333 1635 1713.66666667 1636 1712 1637 C1711.505 1637.495 1711.01 1637.99 1710.5 1638.5 C1708.56503396 1640.43496604 1706.34110827 1641.59533504 1704 1643 C1703.505 1643.495 1703.01 1643.99 1702.5 1644.5 C1700.56503396 1646.43496604 1698.34110827 1647.59533504 1696 1649 C1695.505 1649.495 1695.01 1649.99 1694.5 1650.5 C1692.56503396 1652.43496604 1690.34110827 1653.59533504 1688 1655 C1687.46375 1655.556875 1686.9275 1656.11375 1686.375 1656.6875 C1685 1658 1685 1658 1682 1658 C1682 1658.66 1682 1659.32 1682 1660 C1680.35546875 1661.18359375 1680.35546875 1661.18359375 1678.1875 1662.4375 C1675.38988011 1664.06307512 1673.24530655 1665.67858136 1671 1668 C1669.34928604 1669.02611949 1667.68029994 1670.02308143 1666 1671 C1662.00492397 1673.51038562 1662.00492397 1673.51038562 1658.4375 1676.5625 C1656.53007487 1678.46992513 1654.30749457 1679.61550326 1652 1681 C1651.505 1681.495 1651.01 1681.99 1650.5 1682.5 C1648.56503396 1684.43496604 1646.34110827 1685.59533504 1644 1687 C1643.505 1687.495 1643.01 1687.99 1642.5 1688.5 C1640.56503396 1690.43496604 1638.34110827 1691.59533504 1636 1693 C1635.46375 1693.556875 1634.9275 1694.11375 1634.375 1694.6875 C1633 1696 1633 1696 1630 1696 C1630 1696.66 1630 1697.32 1630 1698 C1628.35546875 1699.18359375 1628.35546875 1699.18359375 1626.1875 1700.4375 C1623.38988011 1702.06307512 1621.24530655 1703.67858136 1619 1706 C1617.34928604 1707.02611949 1615.68029994 1708.02308143 1614 1709 C1609.91387844 1711.57483797 1609.91387844 1711.57483797 1606.3125 1714.75 C1605 1716 1605 1716 1602 1716 C1602 1716.66 1602 1717.32 1602 1718 C1600.35546875 1719.18359375 1600.35546875 1719.18359375 1598.1875 1720.4375 C1595.38831351 1722.06398541 1593.25217806 1723.68473572 1591 1726 C1589.33333333 1727 1587.66666667 1728 1586 1729 C1585.505 1729.495 1585.01 1729.99 1584.5 1730.5 C1582.56503396 1732.43496604 1580.34110827 1733.59533504 1578 1735 C1577.505 1735.495 1577.01 1735.99 1576.5 1736.5 C1574.56503396 1738.43496604 1572.34110827 1739.59533504 1570 1741 C1569.46375 1741.556875 1568.9275 1742.11375 1568.375 1742.6875 C1567 1744 1567 1744 1564 1744 C1564 1744.66 1564 1745.32 1564 1746 C1562.35546875 1747.18359375 1562.35546875 1747.18359375 1560.1875 1748.4375 C1557.97715845 1749.72183325 1556.18903804 1750.80064226 1554.42578125 1752.66015625 C1553 1754 1553 1754 1550 1754 C1550 1754.66 1550 1755.32 1550 1756 C1547 1758 1547 1758 1544 1758 C1544 1758.66 1544 1759.32 1544 1760 C1542.35546875 1761.18359375 1542.35546875 1761.18359375 1540.1875 1762.4375 C1537.97715845 1763.72183325 1536.18903804 1764.80064226 1534.42578125 1766.66015625 C1533 1768 1533 1768 1530 1768 C1530 1768.66 1530 1769.32 1530 1770 C1528.35546875 1771.18359375 1528.35546875 1771.18359375 1526.1875 1772.4375 C1523.38831351 1774.06398541 1521.25217806 1775.68473572 1519 1778 C1517.33333333 1779 1515.66666667 1780 1514 1781 C1513.46375 1781.556875 1512.9275 1782.11375 1512.375 1782.6875 C1511 1784 1511 1784 1508 1784 C1508 1784.66 1508 1785.32 1508 1786 C1506.35546875 1787.18359375 1506.35546875 1787.18359375 1504.1875 1788.4375 C1501.38831351 1790.06398541 1499.25217806 1791.68473572 1497 1794 C1495.33333333 1795 1493.66666667 1796 1492 1797 C1491.505 1797.495 1491.01 1797.99 1490.5 1798.5 C1488.56503396 1800.43496604 1486.34110827 1801.59533504 1484 1803 C1483.46375 1803.556875 1482.9275 1804.11375 1482.375 1804.6875 C1481 1806 1481 1806 1478 1806 C1478 1806.66 1478 1807.32 1478 1808 C1475 1810 1475 1810 1472 1810 C1472 1810.66 1472 1811.32 1472 1812 C1470.35546875 1813.18359375 1470.35546875 1813.18359375 1468.1875 1814.4375 C1465.97715845 1815.72183325 1464.18903804 1816.80064226 1462.42578125 1818.66015625 C1461 1820 1461 1820 1458 1820 C1458 1820.66 1458 1821.32 1458 1822 C1456.35546875 1823.18359375 1456.35546875 1823.18359375 1454.1875 1824.4375 C1451.97715845 1825.72183325 1450.18903804 1826.80064226 1448.42578125 1828.66015625 C1447 1830 1447 1830 1444 1830 C1444 1830.66 1444 1831.32 1444 1832 C1442.35546875 1833.18359375 1442.35546875 1833.18359375 1440.1875 1834.4375 C1437.38831351 1836.06398541 1435.25217806 1837.68473572 1433 1840 C1431.33333333 1841 1429.66666667 1842 1428 1843 C1427.505 1843.495 1427.01 1843.99 1426.5 1844.5 C1424.56503396 1846.43496604 1422.34110827 1847.59533504 1420 1849 C1419.46375 1849.556875 1418.9275 1850.11375 1418.375 1850.6875 C1417 1852 1417 1852 1414 1852 C1414 1852.66 1414 1853.32 1414 1854 C1412.35546875 1855.18359375 1412.35546875 1855.18359375 1410.1875 1856.4375 C1407.38831351 1858.06398541 1405.25217806 1859.68473572 1403 1862 C1401.33333333 1863 1399.66666667 1864 1398 1865 C1397.46375 1865.556875 1396.9275 1866.11375 1396.375 1866.6875 C1395 1868 1395 1868 1392 1868 C1392 1868.66 1392 1869.32 1392 1870 C1390.20703125 1871.40234375 1390.20703125 1871.40234375 1387.8125 1872.9375 C1386.99136719 1873.46859375 1386.17023438 1873.9996875 1385.32421875 1874.546875 C1383.60742218 1875.62023353 1381.87115004 1876.66258584 1380.125 1877.6875 C1377.95655106 1878.90532749 1377.95655106 1878.90532749 1376.375 1880.6875 C1375 1882 1375 1882 1372 1882 C1372 1882.66 1372 1883.32 1372 1884 C1370.35546875 1885.18359375 1370.35546875 1885.18359375 1368.1875 1886.4375 C1365.38831351 1888.06398541 1363.25217806 1889.68473572 1361 1892 C1359.33333333 1893 1357.66666667 1894 1356 1895 C1355.505 1895.495 1355.01 1895.99 1354.5 1896.5 C1352.56503396 1898.43496604 1350.34110827 1899.59533504 1348 1901 C1347.505 1901.495 1347.01 1901.99 1346.5 1902.5 C1344.56503396 1904.43496604 1342.34110827 1905.59533504 1340 1907 C1339.505 1907.495 1339.01 1907.99 1338.5 1908.5 C1336.56503396 1910.43496604 1334.34110827 1911.59533504 1332 1913 C1331.46375 1913.556875 1330.9275 1914.11375 1330.375 1914.6875 C1329 1916 1329 1916 1326 1916 C1326 1916.66 1326 1917.32 1326 1918 C1324.35546875 1919.18359375 1324.35546875 1919.18359375 1322.1875 1920.4375 C1319.97715845 1921.72183325 1318.18903804 1922.80064226 1316.42578125 1924.66015625 C1315 1926 1315 1926 1312 1926 C1312 1926.66 1312 1927.32 1312 1928 C1310.35546875 1929.18359375 1310.35546875 1929.18359375 1308.1875 1930.4375 C1305.38831351 1932.06398541 1303.25217806 1933.68473572 1301 1936 C1299.33333333 1937 1297.66666667 1938 1296 1939 C1295.505 1939.495 1295.01 1939.99 1294.5 1940.5 C1292.56503396 1942.43496604 1290.34110827 1943.59533504 1288 1945 C1287.505 1945.495 1287.01 1945.99 1286.5 1946.5 C1284.56503396 1948.43496604 1282.34110827 1949.59533504 1280 1951 C1279.46375 1951.556875 1278.9275 1952.11375 1278.375 1952.6875 C1277 1954 1277 1954 1274 1954 C1274 1954.66 1274 1955.32 1274 1956 C1272.35546875 1957.18359375 1272.35546875 1957.18359375 1270.1875 1958.4375 C1267.38831351 1960.06398541 1265.25217806 1961.68473572 1263 1964 C1261.33333333 1965 1259.66666667 1966 1258 1967 C1257.46375 1967.556875 1256.9275 1968.11375 1256.375 1968.6875 C1255 1970 1255 1970 1252 1970 C1252 1970.66 1252 1971.32 1252 1972 C1250.35546875 1973.18359375 1250.35546875 1973.18359375 1248.1875 1974.4375 C1245.38831351 1976.06398541 1243.25217806 1977.68473572 1241 1980 C1239.33333333 1981 1237.66666667 1982 1236 1983 C1235.505 1983.495 1235.01 1983.99 1234.5 1984.5 C1232.56503396 1986.43496604 1230.34110827 1987.59533504 1228 1989 C1227.505 1989.495 1227.01 1989.99 1226.5 1990.5 C1224.56503396 1992.43496604 1222.34110827 1993.59533504 1220 1995 C1219.505 1995.495 1219.01 1995.99 1218.5 1996.5 C1216.56503396 1998.43496604 1214.34110827 1999.59533504 1212 2001 C1211.46375 2001.556875 1210.9275 2002.11375 1210.375 2002.6875 C1209 2004 1209 2004 1206 2004 C1206 2004.66 1206 2005.32 1206 2006 C1204.35546875 2007.18359375 1204.35546875 2007.18359375 1202.1875 2008.4375 C1199.38831351 2010.06398541 1197.25217806 2011.68473572 1195 2014 C1193.33333333 2015 1191.66666667 2016 1190 2017 C1189.505 2017.495 1189.01 2017.99 1188.5 2018.5 C1187 2020 1187 2020 1184.625 2021.375 C1181.82715884 2022.96147157 1181.82715884 2022.96147157 1179.375 2025.6875 C1177 2028 1177 2028 1174 2028 C1174 2028.66 1174 2029.32 1174 2030 C1172.35546875 2031.18359375 1172.35546875 2031.18359375 1170.1875 2032.4375 C1167.97715845 2033.72183325 1166.18903804 2034.80064226 1164.42578125 2036.66015625 C1163 2038 1163 2038 1160 2038 C1160 2038.66 1160 2039.32 1160 2040 C1158.35546875 2041.18359375 1158.35546875 2041.18359375 1156.1875 2042.4375 C1153.38962268 2044.06322471 1151.24826234 2045.68167849 1149 2048 C1148.2575 2048.433125 1147.515 2048.86625 1146.75 2049.3125 C1143.1593994 2051.5158231 1140.15505886 2054.22270872 1137 2057 C1133.50344 2060.03715795 1129.98526007 2062.63038591 1126 2065 C1125.46375 2065.556875 1124.9275 2066.11375 1124.375 2066.6875 C1123 2068 1123 2068 1120 2068 C1120 2068.66 1120 2069.32 1120 2070 C1118.35546875 2071.18359375 1118.35546875 2071.18359375 1116.1875 2072.4375 C1113.3887341 2074.06374103 1111.25179992 2075.68476909 1109 2078 C1108.21625 2078.45375 1107.4325 2078.9075 1106.625 2079.375 C1103.86281498 2080.94631891 1103.86281498 2080.94631891 1101.5 2083.5 C1099.11274206 2085.88725794 1096.89890505 2087.32168655 1094 2089 C1093.505 2089.495 1093.01 2089.99 1092.5 2090.5 C1090.56503396 2092.43496604 1088.34110827 2093.59533504 1086 2095 C1085.46375 2095.556875 1084.9275 2096.11375 1084.375 2096.6875 C1083 2098 1083 2098 1080 2098 C1080 2098.66 1080 2099.32 1080 2100 C1078.35546875 2101.18359375 1078.35546875 2101.18359375 1076.1875 2102.4375 C1073.3887341 2104.06374103 1071.25179992 2105.68476909 1069 2108 C1068.21625 2108.45375 1067.4325 2108.9075 1066.625 2109.375 C1063.86281498 2110.94631891 1063.86281498 2110.94631891 1061.5 2113.5 C1059.11274206 2115.88725794 1056.89890505 2117.32168655 1054 2119 C1053.505 2119.495 1053.01 2119.99 1052.5 2120.5 C1050.56503396 2122.43496604 1048.34110827 2123.59533504 1046 2125 C1045.505 2125.495 1045.01 2125.99 1044.5 2126.5 C1042.56503396 2128.43496604 1040.34110827 2129.59533504 1038 2131 C1037.505 2131.495 1037.01 2131.99 1036.5 2132.5 C1034.56503396 2134.43496604 1032.34110827 2135.59533504 1030 2137 C1029.505 2137.495 1029.01 2137.99 1028.5 2138.5 C1027 2140 1027 2140 1024.625 2141.375 C1021.86281498 2142.94631891 1021.86281498 2142.94631891 1019.5 2145.5 C1017.06757226 2147.93242774 1014.94272079 2149.26111953 1012 2151 C1010.48908031 2152.15248983 1008.99011639 2153.32073571 1007.5 2154.5 C1004.4348987 2156.92356847 1001.36987298 2159.01772178 998 2161 C997.2575 2161.7425 997.2575 2161.7425 996.5 2162.5 C995 2164 995 2164 992.625 2165.375 C989.86281498 2166.94631891 989.86281498 2166.94631891 987.5 2169.5 C985.11274206 2171.88725794 982.89890505 2173.32168655 980 2175 C979.2575 2175.7425 979.2575 2175.7425 978.5 2176.5 C976.56503396 2178.43496604 974.34110827 2179.59533504 972 2181 C971.2575 2181.7425 971.2575 2181.7425 970.5 2182.5 C968.56503396 2184.43496604 966.34110827 2185.59533504 964 2187 C963.2575 2187.7425 963.2575 2187.7425 962.5 2188.5 C961 2190 961 2190 958.625 2191.375 C955.82715884 2192.96147157 955.82715884 2192.96147157 953.375 2195.6875 C951 2198 951 2198 948 2198 C948 2198.66 948 2199.32 948 2200 C945.58212249 2202.14154865 943.15065425 2203.91032485 940.375 2205.5625 C938.02470794 2206.855898 938.02470794 2206.855898 936.5 2208.5 C934.56503396 2210.43496604 932.34110827 2211.59533504 930 2213 C929.2575 2213.7425 929.2575 2213.7425 928.5 2214.5 C927 2216 927 2216 924.75 2217.25 C921.52363054 2219.3031442 919.21939644 2221.76477719 916.6484375 2224.57421875 C915 2226 915 2226 912 2226 C912 2226.66 912 2227.32 912 2228 C910.35546875 2229.18359375 910.35546875 2229.18359375 908.1875 2230.4375 C905.38914625 2232.06350154 903.25142869 2233.68479146 901 2236 C899.88625 2236.61875 899.88625 2236.61875 898.75 2237.25 C895.61863799 2239.24268491 893.3602794 2241.57479385 890.84375 2244.28125 C888.7283452 2246.25323753 886.4834118 2247.52177869 884 2249 C882.14406762 2250.47194637 880.31137724 2251.97355851 878.5 2253.5 C875.11908339 2256.34908703 871.79428572 2258.74393822 868 2261 C867.175 2261.825 866.35 2262.65 865.5 2263.5 C863.11274206 2265.88725794 860.89890505 2267.32168655 858 2269 C857.2575 2269.7425 857.2575 2269.7425 856.5 2270.5 C854.56503396 2272.43496604 852.34110827 2273.59533504 850 2275 C849.2575 2275.7425 849.2575 2275.7425 848.5 2276.5 C847 2278 847 2278 844.625 2279.375 C841.86281498 2280.94631891 841.86281498 2280.94631891 839.5 2283.5 C837.10103497 2285.89896503 834.88480481 2287.26911711 832 2289 C831.175 2289.825 830.35 2290.65 829.5 2291.5 C827.11274206 2293.88725794 824.89890505 2295.32168655 822 2297 C821.2575 2297.7425 821.2575 2297.7425 820.5 2298.5 C819 2300 819 2300 816.625 2301.375 C813.86281498 2302.94631891 813.86281498 2302.94631891 811.5 2305.5 C809.10103497 2307.89896503 806.88480481 2309.26911711 804 2311 C803.175 2311.825 802.35 2312.65 801.5 2313.5 C799.11274206 2315.88725794 796.89890505 2317.32168655 794 2319 C793.2575 2319.7425 793.2575 2319.7425 792.5 2320.5 C791 2322 791 2322 788.75 2323.25 C786.23398837 2324.85109831 784.5544379 2326.37410339 782.5 2328.5 C779.85794825 2331.23394921 777.33925546 2333.14485808 774 2335 C773.2575 2335.7425 773.2575 2335.7425 772.5 2336.5 C770.56503396 2338.43496604 768.34110827 2339.59533504 766 2341 C765.2575 2341.7425 765.2575 2341.7425 764.5 2342.5 C763 2344 763 2344 760.75 2345.25 C758.23398837 2346.85109831 756.5544379 2348.37410339 754.5 2350.5 C751.85794825 2353.23394921 749.33925546 2355.14485808 746 2357 C745.2575 2357.7425 745.2575 2357.7425 744.5 2358.5 C743 2360 743 2360 740.75 2361.25 C738.23398837 2362.85109831 736.5544379 2364.37410339 734.5 2366.5 C731.85794825 2369.23394921 729.33925546 2371.14485808 726 2373 C725.2575 2373.7425 725.2575 2373.7425 724.5 2374.5 C723 2376 723 2376 720.625 2377.375 C717.86281498 2378.94631891 717.86281498 2378.94631891 715.5 2381.5 C713.10103497 2383.89896503 710.88480481 2385.26911711 708 2387 C707.175 2387.825 706.35 2388.65 705.5 2389.5 C703.11274206 2391.88725794 700.89890505 2393.32168655 698 2395 C697.2575 2395.7425 697.2575 2395.7425 696.5 2396.5 C695 2398 695 2398 692.75 2399.25 C690.23398837 2400.85109831 688.5544379 2402.37410339 686.5 2404.5 C683.85794825 2407.23394921 681.33925546 2409.14485808 678 2411 C677.2575 2411.7425 677.2575 2411.7425 676.5 2412.5 C675 2414 675 2414 672.6875 2415.3125 C669.83269532 2417.10505178 667.8129141 2419.05678088 665.5 2421.5 C662.5283596 2424.63905676 659.75737402 2426.86743637 656 2429 C655.2575 2429.7425 655.2575 2429.7425 654.5 2430.5 C653 2432 653 2432 650.75 2433.25 C648.23398837 2434.85109831 646.5544379 2436.37410339 644.5 2438.5 C641.85794825 2441.23394921 639.33925546 2443.14485808 636 2445 C635.2575 2445.7425 635.2575 2445.7425 634.5 2446.5 C633 2448 633 2448 630.6875 2449.3125 C627.83269532 2451.10505178 625.8129141 2453.05678088 623.5 2455.5 C620.5283596 2458.63905676 617.75737402 2460.86743637 614 2463 C613.2575 2463.7425 613.2575 2463.7425 612.5 2464.5 C611 2466 611 2466 608.6875 2467.3125 C605.83269532 2469.10505178 603.8129141 2471.05678088 601.5 2473.5 C598.52066629 2476.6471835 595.72885747 2478.81390265 592 2481 C591.401875 2481.78375 590.80375 2482.5675 590.1875 2483.375 C587.71259807 2486.34488232 585.22543706 2487.88832967 581.90234375 2489.7890625 C579.97545719 2490.91492781 579.97545719 2490.91492781 578.56640625 2492.4609375 C577 2494 577 2494 574.59375 2495.40625 C571.75966007 2497.14767875 569.78274206 2499.08865275 567.5 2501.5 C564.52185757 2504.6459251 561.74161476 2506.83380198 558 2509 C557.175 2509.825 556.35 2510.65 555.5 2511.5 C553 2514 553 2514 550.625 2515.375 C547.52245289 2517.2956244 545.31794627 2519.62032193 542.84375 2522.28125 C541 2524 541 2524 538.5625 2525.4375 C535.7351797 2527.16147579 533.77261251 2529.09935298 531.5 2531.5 C528.52185757 2534.6459251 525.74161476 2536.83380198 522 2539 C521.175 2539.825 520.35 2540.65 519.5 2541.5 C517 2544 517 2544 514.625 2545.375 C511.52245289 2547.2956244 509.31794627 2549.62032193 506.84375 2552.28125 C505 2554 505 2554 502.5625 2555.4375 C499.7351797 2557.16147579 497.77261251 2559.09935298 495.5 2561.5 C492.51567307 2564.65245802 489.72665024 2566.80223191 486 2569 C484.14579352 2570.6875133 484.14579352 2570.6875133 482.5 2572.5 C479.84746847 2575.2443941 477.31113717 2577.08302585 474 2579 C473.175 2579.825 472.35 2580.65 471.5 2581.5 C469 2584 469 2584 466.625 2585.375 C463.78407223 2587.13366957 461.7928338 2589.07799247 459.5 2591.5 C456.51567307 2594.65245802 453.72665024 2596.80223191 450 2599 C448.14579352 2600.6875133 448.14579352 2600.6875133 446.5 2602.5 C443.83738817 2605.25442603 441.2870531 2607.02776814 438 2609 C436.81153228 2610.14445039 435.64672795 2611.3137297 434.5 2612.5 C431.83738817 2615.25442603 429.2870531 2617.02776814 426 2619 C424.22288542 2620.71129552 422.52362888 2622.47458781 420.84375 2624.28125 C419 2626 419 2626 416.5625 2627.4375 C413.7351797 2629.16147579 411.77261251 2631.09935298 409.5 2633.5 C406.50972306 2636.65874325 403.71252418 2638.77248549 400 2641 C398.458358 2642.45716847 396.95835688 2643.95948217 395.5 2645.5 C392.51567307 2648.65245802 389.72665024 2650.80223191 386 2653 C384.14579352 2654.6875133 384.14579352 2654.6875133 382.5 2656.5 C379.84746847 2659.2443941 377.31113717 2661.08302585 374 2663 C373.175 2663.825 372.35 2664.65 371.5 2665.5 C369 2668 369 2668 366.625 2669.375 C363.78407223 2671.13366957 361.7928338 2673.07799247 359.5 2675.5 C356.50972306 2678.65874325 353.71252418 2680.77248549 350 2683 C348.458358 2684.45716847 346.95835688 2685.95948217 345.5 2687.5 C342.50972306 2690.65874325 339.71252418 2692.77248549 336 2695 C334.458358 2696.45716847 332.95835688 2697.95948217 331.5 2699.5 C328.50972306 2702.65874325 325.71252418 2704.77248549 322 2707 C320.458358 2708.45716847 318.95835688 2709.95948217 317.5 2711.5 C314.52185757 2714.6459251 311.74161476 2716.83380198 308 2719 C307.175 2719.825 306.35 2720.65 305.5 2721.5 C303 2724 303 2724 300.625 2725.375 C297.78407223 2727.13366957 295.7928338 2729.07799247 293.5 2731.5 C290.50972306 2734.65874325 287.71252418 2736.77248549 284 2739 C282.458358 2740.45716847 280.95835688 2741.95948217 279.5 2743.5 C276.50972306 2746.65874325 273.71252418 2748.77248549 270 2751 C268.458358 2752.45716847 266.95835688 2753.95948217 265.5 2755.5 C262.50972306 2758.65874325 259.71252418 2760.77248549 256 2763 C254.458358 2764.45716847 252.95835688 2765.95948217 251.5 2767.5 C248.50972306 2770.65874325 245.71252418 2772.77248549 242 2775 C240.458358 2776.45716847 238.95835688 2777.95948217 237.5 2779.5 C235.26834435 2781.85738273 233.363435 2783.78566654 230.5625 2785.4375 C227.40079592 2787.36536834 225.02564268 2789.83286473 222.5 2792.5 C219.24363603 2795.93879333 216.09049676 2798.58765576 212 2801 C210.458358 2802.45716847 208.95835688 2803.95948217 207.5 2805.5 C205.26834435 2807.85738273 203.363435 2809.78566654 200.5625 2811.4375 C197.40079592 2813.36536834 195.02564268 2815.83286473 192.5 2818.5 C189.24363603 2821.93879333 186.09049676 2824.58765576 182 2827 C180.458358 2828.45716847 178.95835688 2829.95948217 177.5 2831.5 C175.28391598 2833.84093383 173.4007031 2835.76691127 170.609375 2837.390625 C167.98153301 2839.01138982 166.10763915 2840.69149877 163.96875 2842.90625 C163.24042969 2843.65003906 162.51210937 2844.39382812 161.76171875 2845.16015625 C161.01535156 2845.93230469 160.26898438 2846.70445312 159.5 2847.5 C158.01529981 2849.03598517 156.52585504 2850.56740114 155.03125 2852.09375 C154.37705078 2852.77115234 153.72285156 2853.44855469 153.04882812 2854.14648438 C150.84701259 2856.13840329 148.55552973 2857.5013614 146 2859 C144.10981433 2860.80328058 142.29295313 2862.60660132 140.5 2864.5 C135.65615002 2869.61521412 135.65615002 2869.61521412 132.58203125 2871.41796875 C129.96016313 2873.02440837 128.0991911 2874.70024645 125.96875 2876.90625 C125.24042969 2877.65003906 124.51210937 2878.39382812 123.76171875 2879.16015625 C123.01535156 2879.93230469 122.26898438 2880.70445312 121.5 2881.5 C120.01529981 2883.03598517 118.52585504 2884.56740114 117.03125 2886.09375 C116.37705078 2886.77115234 115.72285156 2887.44855469 115.04882812 2888.14648438 C113 2890 113 2890 110.52734375 2891.47265625 C107.75060274 2893.15071767 105.78710235 2895.01697129 103.53125 2897.34375 C102.71269531 2898.17777344 101.89414063 2899.01179688 101.05078125 2899.87109375 C100.20902344 2900.73863281 99.36726563 2901.60617188 98.5 2902.5 C96.82775726 2904.22345998 95.15082645 2905.94238627 93.46875 2907.65625 C92.36176758 2908.79803711 92.36176758 2908.79803711 91.23242188 2909.96289062 C89 2912 89 2912 86.61672974 2913.38723755 C84.00268964 2914.9983423 82.06875096 2916.67759027 79.89990234 2918.84130859 C78.74377945 2919.98797501 78.74377945 2919.98797501 77.56430054 2921.1578064 C76.74644073 2921.97971466 75.92858093 2922.80162292 75.0859375 2923.6484375 C74.23448151 2924.49798004 73.38302551 2925.34752258 72.50576782 2926.22280884 C70.70971813 2928.01749959 68.91618348 2929.81471033 67.125 2931.61425781 C64.38501536 2934.36494552 61.63453838 2937.10481369 58.8828125 2939.84375 C57.13737921 2941.59050493 55.39256645 2943.33788019 53.6484375 2945.0859375 C52.82652924 2945.9037973 52.00462097 2946.7216571 51.1578064 2947.56430054 C50.39336212 2948.33504913 49.62891785 2949.10579773 48.84130859 2949.89990234 C48.17022064 2950.57258148 47.49913269 2951.24526062 46.80770874 2951.93832397 C44.86591254 2954.15292558 43.47887818 2956.45929138 42 2959 C40.59976229 2960.53448869 39.14770357 2962.02275988 37.65625 2963.46875 C36.82222656 2964.28730469 35.98820312 2965.10585937 35.12890625 2965.94921875 C33.37630208 2967.64973958 31.62369792 2969.35026042 29.87109375 2971.05078125 C29.03707031 2971.86933594 28.20304687 2972.68789062 27.34375 2973.53125 C26.58255859 2974.26923828 25.82136719 2975.00722656 25.03710938 2975.76757812 C22.95838281 2978.04560733 21.57576393 2980.35974893 20 2983 C18.72164153 2984.40003594 17.39303419 2985.75548829 16.0234375 2987.06640625 C14.89421875 2988.1656543 14.89421875 2988.1656543 13.7421875 2989.28710938 C12.15804913 2990.80981664 10.57209583 2992.3306379 8.984375 2993.84960938 C8.23414063 2994.58115234 7.48390625 2995.31269531 6.7109375 2996.06640625 C6.02306152 2996.72584229 5.33518555 2997.38527832 4.62646484 2998.06469727 C2.92347988 3000.09104998 2.39538506 3001.41271249 2 3004 C1.34 3004 0.68 3004 0 3004 C0 2012.68 0 1021.36 0 0 Z " fill="#F0D2E8" transform="translate(0,0)"/>
</svg>
