<svg width="200" height="291" viewBox="0 0 200 291" fill="none" xmlns="http://www.w3.org/2000/svg">
<circle cx="131.613" cy="158.448" r="4.58013" transform="rotate(135.115 131.613 158.448)" fill="#DC9DC2"/>
<circle cx="144.115" cy="153.383" r="4.58013" transform="rotate(135.115 144.115 153.383)" fill="#DC9DC2"/>
<circle cx="149.229" cy="140.902" r="4.58013" transform="rotate(135.115 149.229 140.902)" fill="#DC9DC2"/>
<circle cx="133.033" cy="142.257" r="9.16026" transform="rotate(135.115 133.033 142.257)" fill="#DC9DC2"/>
<circle cx="100.097" cy="217.054" r="4.58013" transform="rotate(135.115 100.097 217.054)" fill="#DC9DC2"/>
<circle cx="112.599" cy="211.99" r="4.58013" transform="rotate(135.115 112.599 211.99)" fill="#DC9DC2"/>
<circle cx="117.713" cy="199.508" r="4.58013" transform="rotate(135.115 117.713 199.508)" fill="#DC9DC2"/>
<circle cx="101.517" cy="200.864" r="9.16026" transform="rotate(135.115 101.517 200.864)" fill="#DC9DC2"/>
<circle cx="72.0696" cy="96.2888" r="4.58013" transform="rotate(135.115 72.0696 96.2888)" fill="#DC9DC2"/>
<circle cx="84.5716" cy="91.2246" r="4.58013" transform="rotate(135.115 84.5716 91.2246)" fill="#DC9DC2"/>
<circle cx="89.6858" cy="78.7427" r="4.58013" transform="rotate(135.115 89.6858 78.7427)" fill="#DC9DC2"/>
<circle cx="73.4898" cy="80.0983" r="9.16026" transform="rotate(135.115 73.4898 80.0983)" fill="#DC9DC2"/>
<circle cx="4.83718" cy="92.5578" r="4.58013" transform="rotate(135.115 4.83718 92.5578)" fill="#DC9DC2"/>
<circle cx="17.3391" cy="87.4936" r="4.58013" transform="rotate(135.115 17.3391 87.4936)" fill="#DC9DC2"/>
<circle cx="22.4534" cy="75.0116" r="4.58013" transform="rotate(135.115 22.4534 75.0116)" fill="#DC9DC2"/>
<circle cx="6.25737" cy="76.3672" r="9.16026" transform="rotate(135.115 6.25737 76.3672)" fill="#DC9DC2"/>
<circle cx="172.07" cy="222.289" r="4.58013" transform="rotate(135.115 172.07 222.289)" fill="#DC9DC2"/>
<circle cx="184.572" cy="217.225" r="4.58013" transform="rotate(135.115 184.572 217.225)" fill="#DC9DC2"/>
<circle cx="189.686" cy="204.743" r="4.58013" transform="rotate(135.115 189.686 204.743)" fill="#DC9DC2"/>
<circle cx="173.49" cy="206.098" r="9.16026" transform="rotate(135.115 173.49 206.098)" fill="#DC9DC2"/>
<circle cx="58.3294" cy="154.522" r="4.58013" transform="rotate(135.115 58.3294 154.522)" fill="#DC9DC2"/>
<circle cx="70.8313" cy="149.458" r="4.58013" transform="rotate(135.115 70.8313 149.458)" fill="#DC9DC2"/>
<circle cx="75.9456" cy="136.976" r="4.58013" transform="rotate(135.115 75.9456 136.976)" fill="#DC9DC2"/>
<circle cx="59.7496" cy="138.331" r="9.16026" transform="rotate(135.115 59.7496 138.331)" fill="#DC9DC2"/>
<circle cx="3.5989" cy="29.6219" r="4.58013" transform="rotate(135.115 3.5989 29.6219)" fill="#DC9DC2"/>
<circle cx="8.71316" cy="17.1399" r="4.58013" transform="rotate(135.115 8.71316 17.1399)" fill="#DC9DC2"/>
<circle cx="-7.48286" cy="18.4955" r="9.16026" transform="rotate(135.115 -7.48286 18.4955)" fill="#DC9DC2"/>
<circle cx="158.329" cy="280.522" r="4.58013" transform="rotate(135.115 158.329 280.522)" fill="#DC9DC2"/>
<circle cx="170.831" cy="275.458" r="4.58013" transform="rotate(135.115 170.831 275.458)" fill="#DC9DC2"/>
<circle cx="175.946" cy="262.976" r="4.58013" transform="rotate(135.115 175.946 262.976)" fill="#DC9DC2"/>
<circle cx="159.75" cy="264.331" r="9.16026" transform="rotate(135.115 159.75 264.331)" fill="#DC9DC2"/>
</svg>
